/*
module.exports = {"glyphs":{"е":{"x_min":58,"x_max":617,"ha":671,"o":"m 146 321 q 155 223 144 269 q 193 144 166 178 q 260 90 219 110 q 358 70 301 70 q 439 85 395 70 q 519 129 484 101 l 573 70 q 473 10 527 29 q 360 -8 419 -8 q 254 6 307 -8 q 157 59 201 21 q 85 165 113 97 q 58 341 58 233 q 83 512 58 444 q 149 621 109 580 q 240 679 190 662 q 338 696 290 696 q 452 673 401 696 q 539 611 502 651 q 596 514 576 571 q 617 389 617 457 l 617 321 l 146 321 m 525 393 q 472 560 522 505 q 340 615 422 615 q 203 558 255 615 q 146 393 151 501 l 525 393 "},"Κ":{"x_min":107,"x_max":828.828125,"ha":850,"o":"m 720 0 q 682 63 706 22 q 628 154 659 104 q 566 259 598 204 q 503 364 534 314 q 448 455 473 414 q 412 518 424 496 q 367 464 396 500 q 305 389 338 429 q 244 314 273 350 q 201 261 214 279 l 201 0 l 107 0 l 107 967 l 201 967 l 201 397 l 203 397 l 412 653 l 671 967 l 778 967 q 742 922 766 951 q 687 856 717 893 q 624 779 657 819 q 561 702 591 739 q 507 636 531 665 q 471 591 484 607 q 514 520 485 566 q 577 416 542 473 q 650 295 612 358 q 723 175 688 232 q 785 71 757 118 q 828 0 813 25 l 720 0 "},"e":{"x_min":58,"x_max":617,"ha":671,"o":"m 146 321 q 155 223 144 269 q 193 144 166 178 q 260 90 219 110 q 358 70 301 70 q 439 85 395 70 q 519 129 484 101 l 573 70 q 473 10 527 29 q 360 -8 419 -8 q 254 6 307 -8 q 157 59 201 21 q 85 165 113 97 q 58 341 58 233 q 84 512 58 444 q 151 621 110 580 q 243 679 192 662 q 343 696 294 696 q 455 673 405 696 q 541 611 505 651 q 597 514 578 571 q 617 389 617 457 l 617 321 l 146 321 m 529 393 q 476 560 526 505 q 340 615 427 615 q 203 558 255 615 q 146 393 151 501 l 529 393 "},"ό":{"x_min":67,"x_max":630.125,"ha":697,"o":"m 288 795 l 394 1026 l 484 995 l 345 773 l 288 795 m 356 695 q 488 665 431 695 q 580 582 545 636 q 617 485 603 546 q 630 339 631 425 q 612 200 628 257 q 570 104 596 143 q 471 19 531 46 q 341 -8 412 -8 q 129 83 200 -8 q 81 191 96 128 q 67 343 67 254 q 80 475 67 421 q 121 571 94 529 q 216 662 157 629 q 356 695 276 695 m 353 617 q 260 593 300 617 q 196 529 220 569 q 165 452 175 496 q 155 341 155 408 q 165 230 155 275 q 195 152 175 184 q 256 92 218 114 q 346 71 295 71 q 443 94 400 71 q 510 171 486 118 q 532 239 523 198 q 542 341 542 279 q 534 449 542 408 q 512 518 526 490 q 353 617 462 617 "},"Ѓ":{"x_min":107,"x_max":707.203125,"ha":717,"o":"m 203 881 l 203 0 l 107 0 l 107 967 l 707 967 l 707 881 l 203 881 m 297 1064 l 494 1224 l 559 1155 l 337 1019 l 297 1064 "},"ў":{"x_min":2.78125,"x_max":590.328125,"ha":596,"o":"m 293 -150 q 221 -248 268 -219 q 122 -278 175 -278 l 86 -278 l 86 -200 l 120 -200 q 179 -176 152 -200 q 219 -112 206 -152 l 256 2 l 2 687 l 100 687 l 212 369 l 298 115 l 302 115 q 340 227 316 156 q 391 376 363 297 l 498 687 l 590 687 l 293 -150 m 301 857 q 379 884 350 857 q 413 952 408 911 l 488 952 q 475 896 486 925 q 442 842 463 867 q 386 801 420 817 q 301 785 351 785 q 216 801 251 785 q 159 842 181 817 q 126 896 137 867 q 113 952 115 925 l 191 952 q 226 886 195 915 q 301 857 256 857 "},"^":{"x_min":47.21875,"x_max":632,"ha":672,"o":"m 47 458 l 306 964 l 373 964 l 632 460 l 554 460 l 338 883 q 317 838 333 870 q 279 762 301 805 q 232 671 256 719 q 186 580 208 623 q 147 503 163 537 q 126 458 131 470 l 47 458 "},"к":{"x_min":80,"x_max":615.265625,"ha":650,"o":"m 80 0 l 80 689 l 168 689 l 168 383 l 319 383 q 358 386 338 383 q 395 401 377 389 q 427 432 412 412 q 452 484 441 452 l 515 689 l 602 689 l 540 488 q 502 404 524 438 q 440 359 480 370 q 511 311 488 348 q 548 223 533 274 l 615 0 l 524 0 l 466 202 q 413 290 445 269 q 331 311 380 311 l 168 311 l 168 0 l 80 0 "},"Ι":{"x_min":110,"x_max":204,"ha":315,"o":"m 110 0 l 110 967 l 204 967 l 204 0 l 110 0 "},"Ύ":{"x_min":-225.015625,"x_max":672.921875,"ha":683,"o":"m 384 0 l 296 0 l 296 398 l 5 967 l 104 967 l 252 666 l 340 483 q 388 582 366 532 q 435 682 411 632 q 506 823 471 753 q 577 967 542 894 l 672 967 q 527 682 599 823 q 384 398 456 541 l 384 0 m -169 753 q -196 765 -183 760 q -225 775 -209 770 l -120 1006 q -75 991 -97 998 q -30 976 -54 983 l -169 753 "},"Ν":{"x_min":108,"x_max":821,"ha":928,"o":"m 371 544 l 205 805 q 203 805 203 805 q 202 804 203 804 l 202 0 l 108 0 l 108 967 l 202 967 l 551 433 q 588 374 565 412 q 638 295 612 336 q 688 216 665 254 q 726 157 712 179 l 729 159 l 729 967 l 821 967 l 821 0 l 729 0 l 371 544 "},"-":{"x_min":72.234375,"x_max":456.984375,"ha":529,"o":"m 72 310 l 72 393 l 456 393 l 456 310 l 72 310 "},"ѕ":{"x_min":28.25,"x_max":576,"ha":627,"o":"m 576 195 q 504 48 576 105 q 308 -8 433 -8 q 160 13 233 -8 q 28 83 87 35 l 82 151 q 315 70 181 70 q 377 76 346 70 q 433 99 408 83 q 472 138 457 114 q 488 196 488 161 q 474 247 488 226 q 435 281 460 268 q 379 301 411 294 q 312 312 347 308 q 226 326 269 318 q 148 353 183 335 q 91 405 113 372 q 69 491 69 437 q 88 577 69 539 q 141 641 107 615 q 220 682 174 668 q 318 696 266 696 q 451 678 395 696 q 555 626 507 661 l 506 556 q 421 599 466 583 q 320 615 375 615 q 201 583 246 615 q 155 495 156 552 q 168 448 155 466 q 208 418 182 430 q 269 399 234 406 q 349 387 305 393 q 428 372 388 383 q 501 339 469 361 q 555 283 534 318 q 576 195 576 248 "},"Q":{"x_min":68,"x_max":831.90625,"ha":822,"o":"m 405 974 q 547 947 484 974 q 653 873 609 921 q 720 762 697 826 q 743 622 743 698 l 743 346 q 700 154 743 237 l 831 48 l 780 -15 q 756 3 774 -10 q 718 33 738 17 q 678 65 697 50 q 652 87 660 80 q 405 -8 563 -8 q 256 20 319 -8 q 151 97 193 48 q 88 210 109 146 q 68 346 68 275 l 68 622 q 88 756 68 693 q 152 868 109 819 q 257 945 194 917 q 405 974 320 974 m 407 884 q 299 861 345 884 q 223 803 253 839 q 177 718 192 767 q 162 618 162 670 l 162 350 q 177 249 162 297 q 222 162 192 200 q 299 103 253 125 q 407 81 344 81 q 501 99 460 81 q 573 148 543 117 q 550 167 569 151 q 507 201 530 182 q 464 236 484 219 q 436 260 444 253 l 490 322 l 619 216 q 641 281 633 247 q 649 353 649 315 l 649 618 q 632 722 649 674 q 584 806 615 770 q 508 863 553 842 q 407 884 464 884 "},"Ш":{"x_min":100,"x_max":1178,"ha":1278,"o":"m 1178 967 l 1178 0 l 100 0 l 100 967 l 194 967 l 194 86 l 589 86 l 589 967 l 683 967 l 683 86 l 1084 86 l 1084 967 l 1178 967 "},"M":{"x_min":107,"x_max":941,"ha":1034,"o":"m 847 0 l 847 754 l 844 753 l 735 509 q 715 466 729 494 q 684 402 701 437 q 650 328 668 366 q 615 255 632 290 q 585 191 598 219 q 565 147 572 162 l 483 147 l 312 516 q 288 567 303 534 q 258 635 273 600 q 227 703 242 671 q 204 754 212 734 l 201 753 l 201 0 l 107 0 l 107 967 l 202 967 q 226 912 210 947 q 263 832 243 876 q 305 740 283 789 q 348 648 328 691 q 385 568 369 604 q 411 514 401 532 q 435 461 419 497 q 467 388 451 426 q 500 314 484 350 q 524 262 516 279 l 527 262 l 640 512 q 665 567 648 532 q 702 647 681 602 q 745 739 723 691 q 787 832 766 787 q 824 912 808 876 q 850 967 840 947 l 941 967 l 941 0 l 847 0 "},"ј":{"x_min":-9.78125,"x_max":209,"ha":321,"o":"m 117 877 l 117 967 l 209 967 l 209 877 l 117 877 m 208 -100 q 194 -175 208 -141 q 156 -231 180 -208 q 99 -268 133 -255 q 26 -282 65 -282 l -9 -282 l -9 -203 l 22 -203 q 93 -174 68 -203 q 118 -93 118 -146 l 118 689 l 208 689 l 208 -100 "},"Ψ":{"x_min":88,"x_max":914,"ha":1003,"o":"m 914 533 q 888 399 914 460 q 814 296 862 339 q 698 228 766 253 q 548 199 631 203 l 548 0 l 454 0 l 454 200 q 302 228 370 202 q 186 299 234 254 q 113 407 139 344 q 88 547 88 469 l 88 967 l 182 967 l 182 558 q 200 451 182 500 q 254 367 219 402 q 340 311 290 332 q 454 289 391 290 l 454 967 l 548 967 l 548 290 q 745 357 670 291 q 820 544 820 423 l 820 967 l 914 967 l 914 533 l 914 533 "},"{":{"x_min":30.21875,"x_max":334,"ha":344,"o":"m 254 -147 q 168 -107 202 -147 q 134 -1 134 -67 l 133 191 q 110 323 133 273 q 30 383 88 372 l 30 437 q 79 462 59 443 q 111 507 99 480 q 129 566 123 533 q 135 632 135 598 l 135 819 q 168 926 135 886 q 254 967 201 967 l 334 967 l 334 909 l 282 909 q 245 897 259 909 q 224 866 231 885 q 213 826 216 847 q 211 783 211 804 l 211 603 q 200 525 211 558 q 174 469 190 492 q 142 432 159 446 q 112 414 126 418 l 112 411 q 143 393 126 407 q 176 356 161 379 q 201 301 191 333 q 211 226 211 268 l 211 36 q 213 -6 211 15 q 224 -47 216 -28 q 245 -78 231 -66 q 282 -90 259 -90 l 334 -90 l 334 -147 l 254 -147 "},"#":{"x_min":16.671875,"x_max":648.65625,"ha":672,"o":"m 16 367 l 156 367 q 162 412 158 378 q 172 485 166 446 q 182 557 177 523 q 188 603 187 591 l 56 603 l 56 666 l 198 666 q 205 721 200 678 q 218 814 211 764 q 231 907 225 864 q 238 964 237 951 l 304 964 l 263 666 l 441 666 q 446 697 443 674 q 454 750 450 720 q 463 815 458 781 q 472 879 468 848 q 479 932 476 909 q 483 964 481 955 l 550 964 l 508 666 l 648 666 l 648 603 l 500 603 l 468 367 l 608 367 l 608 306 l 459 306 l 419 0 l 351 0 l 393 306 l 213 306 q 206 248 212 293 q 193 153 200 204 q 179 57 186 101 q 172 0 173 12 l 105 0 l 148 306 l 16 306 l 16 367 m 222 367 l 401 367 q 407 412 402 378 q 418 485 412 446 q 427 557 423 523 q 433 603 431 591 l 255 603 l 222 367 "},"ι":{"x_min":99,"x_max":250.28125,"ha":300,"o":"m 250 0 q 236 -1 243 -1 q 223 -1 229 -1 q 127 26 155 -1 q 99 128 99 54 l 99 686 l 185 686 l 185 143 q 197 88 185 99 q 247 76 210 76 l 250 76 l 250 0 "},"Џ":{"x_min":106,"x_max":767,"ha":871,"o":"m 767 967 l 767 0 l 488 0 l 488 -228 l 382 -228 l 382 0 l 106 0 l 106 967 l 200 967 l 200 86 l 671 86 l 671 967 l 767 967 "},"Ά":{"x_min":-33.34375,"x_max":807.015625,"ha":822,"o":"m 707 0 q 666 113 686 56 q 626 229 645 170 l 193 229 q 152 113 172 170 q 112 0 131 56 l 13 0 q 189 483 101 243 q 366 967 277 723 l 452 967 l 807 0 l 707 0 m 406 846 q 372 741 395 810 q 322 598 348 673 q 264 437 291 515 q 219 310 237 358 l 598 310 l 490 622 l 411 846 l 406 846 m 20 753 q -33 775 -6 766 q 18 891 -8 834 q 70 1006 44 948 q 115 991 93 998 q 159 976 137 983 l 20 753 "},")":{"x_min":32.109375,"x_max":320,"ha":384,"o":"m 32 -135 q 168 126 115 -19 q 221 426 221 272 q 207 570 221 497 q 169 714 194 643 q 109 851 144 785 q 32 976 75 918 l 79 1006 q 173 883 129 950 q 249 741 216 816 q 301 585 282 666 q 320 419 320 504 q 299 252 320 334 q 246 95 279 170 q 168 -46 212 20 q 76 -167 125 -112 l 32 -135 "},"ε":{"x_min":75,"x_max":570.75,"ha":603,"o":"m 191 362 q 137 390 158 373 q 104 428 116 408 q 89 468 93 448 q 86 505 86 488 q 102 575 86 541 q 149 636 118 609 q 228 680 180 664 q 341 696 276 696 q 466 673 408 696 q 567 611 524 650 l 511 547 q 435 592 481 574 q 344 611 388 611 q 221 582 269 611 q 173 504 173 554 q 214 427 173 455 q 326 399 255 399 l 416 399 l 416 327 l 319 327 q 260 317 288 327 q 209 290 231 307 q 174 250 187 273 q 161 198 161 226 q 214 108 161 139 q 349 77 267 77 q 436 94 391 77 q 513 140 481 111 l 570 77 q 467 16 527 38 q 340 -6 406 -6 q 228 9 277 -6 q 145 52 179 24 q 93 118 111 80 q 75 202 75 156 q 80 240 75 217 q 99 285 86 262 q 135 328 112 308 q 191 359 158 348 l 191 362 "},"э":{"x_min":18.078125,"x_max":547,"ha":607,"o":"m 177 387 l 457 387 q 404 552 454 491 q 256 613 355 613 q 167 594 213 613 q 88 547 120 576 l 33 610 q 136 672 75 648 q 262 696 197 696 q 371 677 319 696 q 462 620 423 659 q 524 516 501 580 q 547 359 547 453 q 521 189 547 259 q 452 76 495 119 q 354 12 409 32 q 240 -8 298 -8 q 118 14 175 -8 q 18 76 62 36 l 75 139 q 145 94 102 114 q 233 74 188 74 q 393 137 337 74 q 457 315 450 201 l 177 315 l 177 387 "},"ш":{"x_min":83,"x_max":993,"ha":1076,"o":"m 993 689 l 993 0 l 83 0 l 83 689 l 171 689 l 171 81 l 492 81 l 492 689 l 580 689 l 580 81 l 905 81 l 905 689 l 993 689 "},"Я":{"x_min":44.546875,"x_max":733,"ha":840,"o":"m 179 693 q 195 615 179 648 q 241 562 212 583 q 309 531 270 541 q 394 522 348 522 l 639 522 l 639 884 l 386 884 q 304 871 341 884 q 238 835 266 859 q 194 775 210 811 q 179 693 179 739 m 639 439 l 416 439 q 359 432 387 439 q 305 407 330 425 q 259 357 280 389 q 223 278 237 326 l 144 0 l 44 0 l 125 291 q 172 400 144 358 q 252 462 200 442 q 173 499 205 475 q 121 555 141 524 q 93 623 101 586 q 85 694 85 659 q 105 802 85 752 q 162 889 125 852 q 253 946 200 925 q 373 967 307 967 l 733 967 l 733 0 l 639 0 l 639 439 "},"a":{"x_min":56,"x_max":599,"ha":671,"o":"m 510 68 q 426 9 483 27 q 298 -8 369 -8 q 123 44 190 -8 q 56 191 56 97 q 69 268 56 232 q 111 331 83 304 q 180 373 139 358 q 276 389 221 389 l 511 389 l 511 477 q 470 578 511 543 q 331 613 429 613 q 154 549 216 613 l 98 608 q 198 674 138 652 q 330 696 258 696 q 433 686 384 696 q 518 652 481 676 q 577 585 555 627 q 599 477 599 543 l 599 0 l 511 0 l 511 66 l 510 68 m 297 317 q 180 286 222 317 q 139 196 139 255 q 183 103 139 136 q 309 70 227 70 q 378 75 343 70 q 443 97 413 81 q 492 139 473 113 q 511 207 511 165 l 511 317 l 297 317 "},"=":{"x_min":38.890625,"x_max":632,"ha":672,"o":"m 38 485 l 38 557 l 632 557 l 632 485 l 38 485 m 38 228 l 38 302 l 632 302 l 632 228 l 38 228 "},"Ћ":{"x_min":5.65625,"x_max":905,"ha":981,"o":"m 645 656 q 751 640 703 656 q 833 592 799 624 q 886 514 867 561 q 905 405 905 468 l 905 0 l 813 0 l 813 370 q 770 517 813 466 q 627 568 728 568 q 510 542 572 568 q 383 461 448 516 l 383 0 l 289 0 l 289 884 l 5 884 l 5 967 l 763 967 l 763 884 l 383 884 l 383 557 l 384 557 q 511 630 443 604 q 645 656 579 656 "},"ρ":{"x_min":82,"x_max":635,"ha":703,"o":"m 358 695 q 491 665 433 695 q 584 582 548 636 q 623 483 612 540 q 635 339 635 425 q 615 180 635 243 q 555 73 595 118 q 468 12 519 31 q 357 -7 417 -7 q 254 14 300 -7 q 173 88 208 36 q 170 86 173 88 l 170 -278 l 82 -278 l 82 343 q 92 460 82 405 q 118 547 102 514 q 211 655 150 615 q 358 695 272 695 m 357 617 q 260 587 300 617 q 196 511 220 558 q 176 437 184 479 q 169 341 169 395 q 174 249 169 293 q 196 170 180 206 q 254 100 217 126 q 353 72 290 74 q 439 87 401 72 q 501 142 476 103 q 538 236 529 187 q 547 340 547 286 q 540 449 547 408 q 517 518 533 490 q 357 617 468 617 "},"д":{"x_min":22,"x_max":738,"ha":781,"o":"m 738 -185 l 650 -185 l 650 0 l 108 0 l 108 -185 l 22 -185 l 22 71 l 83 79 q 128 120 109 95 q 158 181 146 144 q 177 270 171 218 q 188 396 183 322 l 202 688 l 672 688 l 672 77 l 738 77 l 738 -185 m 584 612 l 278 612 q 271 438 275 521 q 258 285 266 354 q 235 162 250 215 q 196 77 221 108 l 584 77 l 584 612 "},"Z":{"x_min":45.84375,"x_max":644.5,"ha":690,"o":"m 45 0 l 45 83 l 537 884 l 65 884 l 65 967 l 644 967 l 644 890 l 151 86 l 644 86 l 644 0 l 45 0 "},"u":{"x_min":83,"x_max":621,"ha":715,"o":"m 534 0 l 534 94 l 530 94 q 440 15 495 39 q 329 -8 384 -8 q 235 7 280 -8 q 157 53 191 23 q 103 127 123 83 q 83 228 83 171 l 83 689 l 171 689 l 171 262 q 217 124 171 173 q 352 75 264 75 q 424 88 391 75 q 482 129 458 102 q 521 191 507 155 q 535 272 535 227 l 535 689 l 621 689 l 621 0 l 534 0 "},"k":{"x_min":96,"x_max":675.703125,"ha":685,"o":"m 572 0 l 334 369 q 302 334 322 357 q 258 286 281 311 q 214 238 235 261 q 184 202 193 215 l 184 0 l 96 0 l 96 1006 l 184 1006 l 184 318 l 186 318 q 228 364 202 334 q 286 428 254 393 q 352 502 318 464 q 418 577 386 541 q 476 642 450 612 q 517 689 502 672 l 621 689 l 392 432 q 425 380 403 414 q 475 304 447 345 q 533 216 503 262 q 590 127 563 169 q 640 52 618 86 q 675 0 663 18 l 572 0 "},"З":{"x_min":21.453125,"x_max":706,"ha":766,"o":"m 363 -7 q 249 6 303 -7 q 151 45 196 19 q 72 107 106 70 q 21 190 39 144 l 107 231 q 148 168 121 197 q 210 118 175 138 q 285 86 245 97 q 367 75 325 75 q 463 88 418 75 q 539 129 507 102 q 590 195 571 157 q 609 283 609 233 q 592 364 609 329 q 549 424 576 400 q 485 461 522 448 q 404 474 447 474 l 293 474 l 293 557 l 401 557 q 475 568 440 557 q 535 602 510 580 q 576 657 561 625 q 592 727 592 689 q 576 794 592 765 q 531 844 560 823 q 464 874 503 864 q 379 885 425 885 q 230 846 297 885 q 132 741 162 807 l 47 782 q 172 921 85 869 q 379 974 260 974 q 516 955 458 974 q 611 903 573 936 q 667 826 648 871 q 686 732 686 782 q 678 675 686 707 q 653 614 670 644 q 608 557 635 583 q 538 518 580 532 l 538 514 q 621 471 588 498 q 672 411 654 443 q 698 345 691 379 q 706 284 706 312 q 681 167 706 220 q 612 74 657 113 q 504 14 567 36 q 363 -7 440 -7 "},"Α":{"x_min":13.890625,"x_max":807.015625,"ha":822,"o":"m 707 0 q 666 113 686 56 q 626 229 645 170 l 193 229 q 152 113 172 170 q 112 0 131 56 l 13 0 q 189 483 101 243 q 366 967 277 723 l 452 967 l 807 0 l 707 0 m 406 846 q 372 741 395 810 q 322 598 348 673 q 264 437 291 515 q 219 310 237 358 l 598 310 l 490 622 l 411 846 l 406 846 "},"B":{"x_min":107,"x_max":769,"ha":822,"o":"m 769 263 q 748 153 769 202 q 691 71 727 105 q 607 18 654 37 q 506 0 560 0 l 107 0 l 107 967 l 466 967 q 586 948 534 967 q 674 896 639 929 q 727 816 709 862 q 746 716 746 770 q 739 658 746 688 q 714 598 732 627 q 667 543 697 568 q 592 502 638 518 l 592 498 q 671 463 638 488 q 726 405 705 438 q 758 335 748 373 q 769 263 769 298 m 201 884 l 201 536 l 452 536 q 600 585 549 536 q 652 710 652 634 q 601 834 652 784 q 452 884 550 884 l 201 884 m 201 453 l 201 86 l 473 86 q 561 100 524 86 q 624 140 599 115 q 661 198 649 164 q 673 270 673 232 q 661 339 673 306 q 624 397 649 372 q 561 437 599 422 q 473 453 524 453 l 201 453 "},"В":{"x_min":107,"x_max":769,"ha":822,"o":"m 769 263 q 748 153 769 202 q 691 71 727 105 q 607 18 654 37 q 506 0 560 0 l 107 0 l 107 967 l 466 967 q 586 948 534 967 q 674 896 639 929 q 727 816 709 862 q 746 716 746 770 q 739 658 746 688 q 714 598 732 627 q 667 543 697 568 q 592 502 638 518 l 592 498 q 671 463 638 488 q 726 405 705 438 q 758 335 748 373 q 769 263 769 298 m 201 884 l 201 536 l 452 536 q 600 585 549 536 q 652 710 652 634 q 601 834 652 784 q 452 884 550 884 l 201 884 m 201 453 l 201 86 l 473 86 q 561 100 524 86 q 624 140 599 115 q 661 198 649 164 q 673 270 673 232 q 661 339 673 306 q 624 397 649 372 q 561 437 599 422 q 473 453 524 453 l 201 453 "},"І":{"x_min":110,"x_max":204,"ha":315,"o":"m 110 0 l 110 967 l 204 967 l 204 0 l 110 0 "},"H":{"x_min":107,"x_max":768,"ha":876,"o":"m 674 0 l 674 447 l 201 447 l 201 0 l 107 0 l 107 967 l 201 967 l 201 530 l 674 530 l 674 967 l 768 967 l 768 0 l 674 0 "},"ν":{"x_min":5.5625,"x_max":590.328125,"ha":601,"o":"m 337 0 l 259 0 l 5 688 l 98 688 l 205 391 l 297 123 l 301 123 l 383 366 l 497 688 l 590 688 l 337 0 "},"β":{"x_min":93,"x_max":637,"ha":710,"o":"m 637 319 q 622 191 637 251 q 577 87 607 132 q 498 17 546 43 q 379 -8 449 -8 q 329 -3 355 -8 q 277 12 302 0 q 226 44 251 23 q 182 98 201 65 q 181 97 182 98 l 181 -193 l 93 -193 l 93 737 q 109 847 93 797 q 158 932 126 897 q 238 987 190 968 q 351 1007 287 1007 q 465 984 419 1007 q 539 925 511 961 q 580 849 568 890 q 593 773 593 808 q 570 661 593 716 q 491 577 547 606 l 491 576 q 562 541 534 567 q 607 479 591 515 q 630 402 624 444 q 637 319 637 359 m 275 536 l 275 611 l 363 611 q 429 624 402 611 q 473 660 456 638 q 497 709 489 681 q 505 765 505 737 q 497 818 505 788 q 471 872 489 847 q 423 914 453 897 q 348 932 392 932 q 266 913 298 932 q 214 868 233 895 q 188 807 196 840 q 181 743 181 773 l 181 326 q 187 242 181 287 q 214 159 194 197 q 269 95 233 121 q 361 70 304 70 q 454 93 418 70 q 510 154 490 117 q 539 237 531 192 q 547 327 547 283 q 539 402 547 365 q 512 468 531 438 q 461 517 493 498 q 382 536 430 536 l 275 536 "},"Ό":{"x_min":-141.671875,"x_max":743,"ha":810,"o":"m 405 974 q 547 947 484 974 q 653 873 609 921 q 720 762 697 826 q 743 622 743 698 l 743 346 q 719 198 743 264 q 652 87 695 133 q 545 17 608 42 q 405 -8 483 -8 q 255 20 319 -8 q 150 97 191 48 q 87 210 108 146 q 67 346 67 275 l 67 622 q 87 756 67 693 q 150 868 108 819 q 256 945 193 917 q 405 974 319 974 m 407 885 q 299 862 345 885 q 222 804 253 840 q 176 719 191 768 q 161 619 161 671 l 161 348 q 176 247 161 296 q 222 161 191 198 q 299 100 253 123 q 407 78 345 78 q 507 98 462 78 q 582 155 551 119 q 630 242 613 191 q 647 351 647 293 l 647 619 q 630 723 647 675 q 583 807 613 772 q 507 864 552 843 q 407 885 462 885 m -141 775 l -37 1007 l 54 976 l -84 753 l -141 775 "},"U":{"x_min":88,"x_max":764,"ha":850,"o":"m 764 967 l 764 336 q 739 194 764 257 q 670 85 715 130 q 562 16 625 40 q 425 -8 500 -8 q 281 19 344 -8 q 175 93 218 46 q 110 204 132 140 q 88 342 88 268 l 88 967 l 182 967 l 182 354 q 198 250 182 300 q 246 162 215 200 q 323 103 277 125 q 427 81 368 81 q 601 151 535 81 q 668 349 668 221 l 668 967 l 764 967 "},"F":{"x_min":107,"x_max":707.203125,"ha":717,"o":"m 203 881 l 203 526 l 632 526 l 632 443 l 203 443 l 203 0 l 107 0 l 107 967 l 707 967 l 707 881 l 203 881 "},"Χ":{"x_min":6.9375,"x_max":702.828125,"ha":711,"o":"m 598 0 l 355 420 l 111 0 l 6 0 l 302 496 l 26 967 l 131 967 l 355 571 l 579 967 l 683 967 l 406 496 l 702 0 l 598 0 "},"*":{"x_min":40.28125,"x_max":455.59375,"ha":489,"o":"m 402 616 q 370 591 388 605 q 338 568 352 577 l 247 715 q 227 684 240 704 q 201 642 215 664 q 175 599 187 619 q 156 567 163 579 l 93 617 l 201 746 q 166 755 188 749 q 120 769 144 761 q 75 783 97 776 q 40 792 52 789 q 51 828 45 807 q 62 867 56 849 l 220 800 l 208 970 l 286 970 l 273 800 q 307 815 286 806 q 352 833 329 824 q 398 852 376 843 q 433 867 420 861 l 455 790 l 291 746 l 402 616 "},"Ќ":{"x_min":102,"x_max":771.046875,"ha":796,"o":"m 102 0 l 102 963 l 196 963 l 196 536 l 390 536 q 440 541 415 536 q 489 562 465 547 q 534 606 514 577 q 571 681 555 636 l 661 964 l 754 964 l 666 684 q 610 565 644 613 q 527 502 576 517 q 624 433 591 484 q 677 312 657 383 l 771 0 l 669 0 l 582 301 q 548 379 568 349 q 506 425 529 409 q 457 448 483 442 q 401 455 430 455 l 196 455 l 196 0 l 102 0 m 329 1064 l 526 1224 l 591 1155 l 368 1019 l 329 1064 "},"Ξ":{"x_min":79.171875,"x_max":693.109375,"ha":779,"o":"m 79 881 l 79 967 l 693 967 l 693 881 l 79 881 m 156 447 l 156 530 l 616 530 l 616 447 l 156 447 m 79 0 l 79 86 l 693 86 l 693 0 l 79 0 "},"Ϋ":{"x_min":5.703125,"x_max":672.921875,"ha":683,"o":"m 384 0 l 296 0 l 296 398 l 5 967 l 104 967 l 252 666 l 340 483 q 388 582 366 532 q 435 682 411 632 q 506 823 471 753 q 577 967 542 894 l 672 967 q 527 682 599 823 q 384 398 456 541 l 384 0 m 415 1158 l 514 1158 l 514 1061 l 415 1061 l 415 1158 m 165 1158 l 264 1158 l 264 1061 l 165 1061 l 165 1158 "},"0":{"x_min":74,"x_max":599,"ha":673,"o":"m 599 257 q 577 144 599 193 q 519 60 555 94 q 435 9 482 26 q 336 -8 387 -8 q 237 9 285 -8 q 153 60 190 26 q 95 144 117 94 q 74 257 74 193 l 74 709 q 95 822 74 773 q 153 906 117 872 q 237 957 190 940 q 336 975 285 975 q 435 957 387 975 q 519 906 482 940 q 577 822 555 872 q 599 709 599 773 l 599 257 m 511 701 q 463 838 511 787 q 336 889 415 889 q 207 838 255 889 q 160 701 160 787 l 160 265 q 207 128 160 179 q 336 77 255 77 q 463 128 415 77 q 511 265 511 179 l 511 701 "},"΄":{"x_min":276.40625,"x_max":472.265625,"ha":676,"o":"m 276 796 l 380 1026 l 472 995 l 333 774 l 276 796 "},"Β":{"x_min":107,"x_max":769,"ha":822,"o":"m 769 263 q 748 153 769 202 q 691 71 727 105 q 607 18 654 37 q 506 0 560 0 l 107 0 l 107 967 l 466 967 q 586 948 534 967 q 674 896 639 929 q 727 816 709 862 q 746 716 746 770 q 739 658 746 688 q 714 598 732 627 q 667 543 697 568 q 592 502 638 518 l 592 498 q 671 463 638 488 q 726 405 705 438 q 758 335 748 373 q 769 263 769 298 m 201 884 l 201 536 l 452 536 q 600 585 549 536 q 652 710 652 634 q 601 834 652 784 q 452 884 550 884 l 201 884 m 201 453 l 201 86 l 473 86 q 561 100 524 86 q 624 140 599 115 q 661 198 649 164 q 673 270 673 232 q 661 339 673 306 q 624 397 649 372 q 561 437 599 422 q 473 453 524 453 l 201 453 "},"]":{"x_min":43,"x_max":258,"ha":344,"o":"m 43 -149 l 43 -86 l 175 -86 l 175 906 l 43 906 l 43 970 l 258 970 l 258 -149 l 43 -149 "},"А":{"x_min":13.890625,"x_max":807.015625,"ha":822,"o":"m 707 0 q 666 113 686 56 q 626 229 645 170 l 193 229 q 152 113 172 170 q 112 0 131 56 l 13 0 q 189 483 101 243 q 366 967 277 723 l 452 967 l 807 0 l 707 0 m 406 846 q 372 741 395 810 q 322 598 348 673 q 264 437 291 515 q 219 310 237 358 l 598 310 l 490 622 l 411 846 l 406 846 "},"Ы":{"x_min":116,"x_max":966,"ha":1066,"o":"m 116 0 l 116 967 l 210 967 l 210 538 l 472 538 q 600 517 544 538 q 695 460 657 496 q 754 376 734 425 q 775 273 775 328 q 749 149 775 201 q 681 63 723 97 q 582 15 639 30 q 465 0 526 0 l 116 0 m 872 0 l 872 967 l 966 967 l 966 0 l 872 0 m 675 270 q 661 337 675 305 q 622 394 648 369 q 557 434 595 419 q 469 450 519 450 l 210 450 l 210 86 l 469 86 q 550 96 512 86 q 616 129 588 106 q 659 187 643 152 q 675 270 675 222 "},"χ":{"x_min":30.5625,"x_max":597.265625,"ha":628,"o":"m 491 0 l 313 288 l 136 0 l 30 0 l 262 352 l 41 689 l 147 689 l 313 412 l 480 689 l 586 689 l 365 351 l 597 0 l 491 0 "},"8":{"x_min":54,"x_max":622,"ha":672,"o":"m 622 268 q 599 155 622 207 q 537 68 576 104 q 447 12 499 32 q 337 -8 395 -8 q 227 12 278 -8 q 137 68 176 32 q 76 155 98 104 q 54 268 54 207 q 63 334 54 300 q 90 400 72 369 q 137 457 109 432 q 202 498 165 483 q 141 537 166 513 q 101 589 116 561 q 78 648 85 618 q 72 708 72 679 q 92 812 72 764 q 148 896 112 861 q 232 953 184 932 q 337 974 280 974 q 448 953 398 974 q 531 896 497 932 q 584 812 565 861 q 603 708 603 764 q 571 586 603 643 q 473 498 540 530 l 474 497 q 541 458 513 483 q 587 402 569 433 q 613 336 605 370 q 622 268 622 301 m 337 461 q 262 447 298 461 q 200 408 227 433 q 156 348 173 383 q 140 269 140 312 q 155 192 140 228 q 199 129 171 156 q 262 88 226 103 q 337 73 298 73 q 412 88 376 73 q 476 129 448 103 q 520 192 504 156 q 536 269 536 228 q 519 348 536 312 q 475 408 502 383 q 412 447 448 433 q 337 461 376 461 m 337 893 q 272 881 304 893 q 215 845 240 869 q 175 788 190 822 q 160 711 160 754 q 175 633 160 666 q 215 578 190 600 q 272 546 240 557 q 337 535 304 535 q 403 545 371 535 q 460 578 435 555 q 501 633 486 600 q 517 711 517 666 q 501 788 517 754 q 461 845 486 822 q 403 881 436 869 q 337 893 371 893 "},"ί":{"x_min":99,"x_max":297.25,"ha":300,"o":"m 250 0 q 236 -1 243 -1 q 223 -1 229 -1 q 127 26 155 -1 q 99 127 99 54 l 99 686 l 185 686 l 185 143 q 197 88 185 100 q 247 76 210 76 l 250 76 l 250 0 m 101 795 l 205 1026 l 297 995 l 158 773 l 101 795 "},"Ζ":{"x_min":45.84375,"x_max":644.5,"ha":690,"o":"m 45 0 l 45 83 l 537 884 l 65 884 l 65 967 l 644 967 l 644 890 l 151 86 l 644 86 l 644 0 l 45 0 "},"R":{"x_min":108,"x_max":771,"ha":822,"o":"m 647 0 l 451 436 l 202 436 l 202 0 l 108 0 l 108 967 l 493 967 q 603 948 552 967 q 691 896 654 930 q 750 815 729 862 q 771 709 771 768 q 709 537 771 606 q 548 444 648 467 l 754 0 l 647 0 m 674 709 q 657 788 674 754 q 614 842 641 821 q 551 873 587 863 q 473 884 515 884 l 202 884 l 202 519 l 467 519 q 614 567 555 519 q 674 709 674 616 "},"o":{"x_min":67,"x_max":630.125,"ha":697,"o":"m 356 695 q 488 665 431 695 q 580 582 545 636 q 617 485 603 546 q 630 339 631 425 q 612 200 628 257 q 570 104 596 143 q 471 19 531 46 q 341 -8 412 -8 q 129 83 200 -8 q 81 191 96 128 q 67 343 67 254 q 80 475 67 421 q 121 571 94 529 q 216 662 157 629 q 356 695 276 695 m 353 617 q 260 593 300 617 q 196 529 220 569 q 165 452 175 496 q 155 341 155 408 q 165 230 155 275 q 195 152 175 184 q 256 92 218 114 q 346 71 295 71 q 443 94 400 71 q 510 171 486 118 q 532 239 523 198 q 542 341 542 279 q 534 449 542 408 q 512 518 526 490 q 353 617 462 617 "},"5":{"x_min":67.75,"x_max":601,"ha":672,"o":"m 152 195 q 213 100 167 131 q 326 69 259 69 q 417 89 380 69 q 475 144 453 110 q 505 219 496 177 q 515 301 515 260 l 515 351 q 506 431 515 392 q 477 500 498 470 q 422 547 456 530 q 334 565 387 565 q 245 539 288 565 q 176 473 202 513 l 92 473 l 92 967 l 580 967 l 580 884 l 174 884 l 174 574 q 269 633 222 620 q 358 646 316 646 q 465 625 419 646 q 540 568 510 604 q 585 481 570 532 q 601 370 601 430 l 601 309 q 585 185 601 243 q 537 84 570 127 q 451 17 503 41 q 324 -7 399 -7 q 235 3 276 -7 q 160 35 194 13 q 103 93 127 57 q 67 180 80 128 l 152 195 "},"Ѕ":{"x_min":15.28125,"x_max":710,"ha":746,"o":"m 710 265 q 685 152 710 202 q 616 66 661 101 q 509 11 572 30 q 369 -8 446 -8 q 184 21 277 -8 q 15 110 90 50 l 75 186 q 212 108 136 135 q 373 81 289 81 q 467 92 423 81 q 544 126 511 103 q 594 183 576 149 q 613 266 613 218 q 592 347 613 315 q 537 399 571 379 q 459 431 503 419 q 370 451 416 443 q 261 475 315 461 q 164 516 206 488 q 95 588 121 543 q 69 708 69 634 q 92 821 69 772 q 158 905 116 870 q 256 957 199 939 q 380 976 313 976 q 675 890 557 976 l 623 811 q 508 864 568 845 q 379 884 447 884 q 224 840 285 884 q 163 707 163 796 q 183 633 163 662 q 238 586 203 605 q 322 555 274 567 q 428 533 371 544 q 528 507 478 521 q 619 464 579 492 q 685 388 660 435 q 710 265 710 340 "},",":{"x_min":75.265625,"x_max":199,"ha":296,"o":"m 75 -147 l 115 0 l 85 0 l 85 122 l 199 122 l 199 3 l 130 -147 l 75 -147 "},"d":{"x_min":56,"x_max":598,"ha":669,"o":"m 510 0 l 510 94 l 507 94 q 409 12 459 33 q 308 -8 359 -8 q 186 21 235 -8 q 108 98 137 50 q 67 210 79 147 q 56 340 56 273 q 68 469 56 405 q 111 583 80 533 q 194 664 142 633 q 325 696 246 696 q 433 671 387 696 q 507 604 479 646 l 510 604 l 510 1007 l 598 1007 l 598 0 l 510 0 m 510 343 q 502 439 510 392 q 475 525 494 487 q 420 586 455 562 q 331 610 385 610 q 235 585 271 610 q 179 522 199 561 q 154 437 160 483 q 148 344 148 390 q 153 254 148 301 q 177 167 159 207 q 233 102 196 128 q 331 77 270 77 q 424 103 389 77 q 478 169 458 129 q 503 255 497 208 q 510 343 510 301 "},"\"":{"x_min":85,"x_max":301,"ha":383,"o":"m 233 699 l 233 967 l 301 967 l 301 699 l 233 699 m 85 699 l 85 967 l 153 967 l 153 699 l 85 699 "},"ч":{"x_min":46,"x_max":574,"ha":655,"o":"m 487 0 l 486 314 q 378 269 437 285 q 272 253 319 253 q 182 264 223 253 q 110 303 140 276 q 63 374 80 331 q 46 480 46 417 l 46 689 l 134 689 l 134 488 q 176 370 134 405 q 287 336 218 336 q 330 339 305 336 q 381 350 355 342 q 435 370 408 358 q 487 398 462 381 l 487 689 l 574 689 l 574 0 l 487 0 "},"δ":{"x_min":55,"x_max":616,"ha":676,"o":"m 337 608 q 236 571 279 602 q 170 494 193 539 q 149 421 155 462 q 143 332 143 379 q 152 223 143 269 q 188 140 161 176 q 249 88 211 105 q 336 71 287 71 q 425 89 387 71 q 491 152 464 108 q 521 232 515 189 q 528 332 528 276 q 519 429 528 391 q 496 494 511 466 q 434 569 472 543 q 337 608 395 596 m 360 1009 q 472 995 422 1009 q 567 957 521 982 q 558 943 564 954 q 547 919 553 932 q 535 896 540 907 q 528 880 529 884 q 445 916 486 904 q 358 928 403 928 q 260 898 300 928 q 220 823 220 869 q 235 772 220 794 q 275 733 250 750 q 331 703 300 716 q 395 676 363 690 q 487 629 442 657 q 560 559 532 601 q 602 464 588 519 q 616 330 616 408 q 602 195 616 250 q 554 96 588 140 q 459 17 517 43 q 332 -8 402 -8 q 129 72 198 -8 q 72 180 89 117 q 55 332 55 243 q 64 442 55 393 q 96 531 74 490 q 154 605 120 571 q 242 657 189 639 q 159 726 189 685 q 130 820 130 767 q 147 896 130 861 q 195 956 164 931 q 267 995 225 981 q 360 1009 310 1009 "},"ω":{"x_min":62,"x_max":979,"ha":1035,"o":"m 750 693 q 856 660 812 687 q 927 587 900 633 q 966 479 954 541 q 979 343 979 418 q 964 197 979 262 q 918 87 949 133 q 839 17 887 41 q 723 -7 791 -7 q 606 20 659 -7 q 518 114 553 47 q 431 21 482 51 q 317 -8 379 -8 q 199 16 247 -8 q 120 87 150 41 q 75 198 89 133 q 62 341 62 262 q 116 586 62 493 q 293 693 170 679 l 304 609 q 187 528 225 598 q 150 340 150 458 q 159 232 150 280 q 188 148 169 183 q 239 93 208 112 q 315 74 270 74 q 383 89 354 74 q 432 130 412 104 q 461 189 451 155 q 471 261 471 224 l 471 521 l 559 521 l 559 261 q 569 189 559 224 q 600 130 579 155 q 652 89 621 104 q 725 75 683 75 q 848 147 808 75 q 889 341 889 219 q 852 529 889 459 q 736 611 816 598 l 750 693 "},"И":{"x_min":101,"x_max":816,"ha":915,"o":"m 722 0 l 722 796 q 720 796 720 796 q 719 797 720 797 q 455 398 587 598 q 192 0 324 198 l 101 0 l 101 967 l 195 967 l 195 151 q 198 150 195 151 q 466 557 332 354 q 735 967 599 761 l 816 967 l 816 0 l 722 0 "},"Љ":{"x_min":13.65625,"x_max":1240,"ha":1268,"o":"m 579 884 l 291 884 l 291 423 q 273 234 291 310 q 222 107 255 158 q 143 27 190 56 q 40 -18 97 -1 l 13 62 q 90 104 56 82 q 148 166 124 126 q 184 270 172 205 q 197 443 197 336 l 197 967 l 675 967 l 675 537 l 948 537 q 1074 514 1019 537 q 1165 454 1128 491 q 1221 370 1202 417 q 1240 274 1240 323 q 1214 151 1240 203 q 1144 65 1188 99 q 1044 15 1101 31 q 928 0 988 0 l 579 0 l 579 884 m 1140 273 q 1127 340 1140 308 q 1089 398 1115 373 q 1026 438 1063 423 q 938 454 988 454 l 675 454 l 675 86 l 933 86 q 1081 132 1022 86 q 1140 273 1140 179 "},"р":{"x_min":79,"x_max":621,"ha":689,"o":"m 167 689 l 167 593 l 170 591 q 264 674 211 652 q 369 696 317 696 q 491 666 443 696 q 568 589 540 637 q 609 477 597 540 q 621 347 621 414 q 609 218 621 282 q 567 104 597 154 q 485 23 537 54 q 354 -8 433 -8 q 247 16 289 -8 q 170 87 206 41 l 167 87 l 167 -275 l 79 -275 l 79 689 l 167 689 m 167 344 q 174 248 167 296 q 202 162 182 200 q 257 101 222 125 q 347 78 293 78 q 441 102 405 78 q 497 165 477 126 q 522 251 516 204 q 529 343 529 297 q 523 434 529 386 q 498 521 517 482 q 443 587 479 561 q 347 613 406 613 q 252 586 289 613 q 198 519 216 560 q 173 433 179 479 q 167 344 167 386 "},"Ω":{"x_min":38,"x_max":754,"ha":796,"o":"m 182 85 q 126 131 150 101 q 87 198 102 161 q 64 280 72 236 q 57 369 57 323 l 57 623 q 77 757 57 693 q 140 869 98 821 q 246 945 183 917 q 395 974 309 974 q 537 947 474 974 q 643 874 599 921 q 710 764 687 828 q 733 623 733 700 l 733 369 q 704 202 733 275 q 610 86 676 129 l 610 85 l 754 85 l 754 0 l 479 0 l 479 101 q 597 198 556 126 q 639 365 639 269 l 639 621 q 623 725 639 676 q 576 810 607 774 q 501 867 546 846 q 397 888 456 888 q 287 865 334 888 q 210 806 241 843 q 165 721 180 769 q 151 621 151 672 l 151 365 q 161 281 151 322 q 191 204 171 240 q 242 141 211 169 q 313 100 272 113 l 313 0 l 38 0 l 38 85 l 182 85 l 182 85 "},"т":{"x_min":0.765625,"x_max":534.625,"ha":536,"o":"m 311 613 l 311 0 l 223 0 l 223 613 l 0 613 l 0 688 l 534 688 l 534 613 l 311 613 "},"П":{"x_min":107,"x_max":768,"ha":876,"o":"m 674 0 l 674 884 l 201 884 l 201 0 l 107 0 l 107 967 l 768 967 l 768 0 l 674 0 "},"z":{"x_min":47.21875,"x_max":545.875,"ha":594,"o":"m 47 0 l 47 72 l 443 611 l 68 611 l 68 689 l 545 689 l 545 612 l 152 81 l 545 81 l 545 0 l 47 0 "},"Θ":{"x_min":58,"x_max":734,"ha":795,"o":"m 396 974 q 538 947 475 974 q 644 873 600 921 q 711 762 688 826 q 734 622 734 698 l 734 346 q 710 198 734 264 q 643 87 686 133 q 536 17 599 42 q 396 -8 474 -8 q 246 20 310 -8 q 141 97 182 48 q 78 210 99 146 q 58 346 58 275 l 58 622 q 78 756 58 693 q 141 868 99 819 q 248 945 184 917 q 396 974 312 974 m 398 884 q 289 861 335 884 q 213 803 243 839 q 167 718 182 767 q 152 618 152 670 l 152 350 q 167 249 152 297 q 213 162 182 200 q 289 103 243 125 q 398 81 335 81 q 498 101 453 81 q 575 158 544 121 q 623 244 606 194 q 640 353 640 294 l 640 618 q 623 722 640 674 q 575 806 606 770 q 499 863 544 842 q 398 884 455 884 m 206 536 l 588 536 l 588 453 l 206 453 l 206 536 "},"и":{"x_min":82,"x_max":644,"ha":725,"o":"m 82 0 l 82 689 l 170 689 l 170 138 l 292 306 l 568 689 l 644 689 l 644 0 l 554 0 l 554 536 l 448 391 l 166 0 l 82 0 "},"~":{"x_min":54.171875,"x_max":623.65625,"ha":672,"o":"m 623 422 q 548 338 587 366 q 456 310 509 310 q 400 322 430 310 q 339 350 370 335 q 277 377 308 364 q 220 390 247 390 q 161 372 184 390 q 112 323 138 355 l 54 365 q 220 473 123 473 q 281 460 250 473 q 343 433 312 447 q 402 405 373 418 q 458 393 431 393 q 515 411 490 393 q 566 465 540 430 l 623 422 l 623 422 "},"[":{"x_min":103,"x_max":320,"ha":344,"o":"m 103 -149 l 103 970 l 320 970 l 320 906 l 186 906 l 186 -86 l 320 -86 l 320 -149 l 103 -149 "},"ζ":{"x_min":53,"x_max":608.265625,"ha":536,"o":"m 147 293 q 156 223 147 253 q 185 171 166 193 q 231 132 203 148 q 294 102 258 116 l 458 39 q 543 -13 522 15 q 564 -77 564 -41 q 552 -125 564 -99 q 525 -177 541 -151 q 492 -226 509 -202 q 461 -268 474 -249 l 392 -229 q 401 -215 394 -227 q 416 -188 408 -202 q 431 -163 424 -174 q 440 -148 438 -151 q 454 -117 448 -133 q 461 -88 461 -101 q 395 -29 461 -52 l 251 23 q 108 122 164 57 q 53 291 53 187 q 79 419 53 347 q 159 573 105 491 q 295 740 214 654 q 486 910 376 826 l 106 910 l 106 988 l 608 988 l 608 914 q 442 771 524 851 q 294 608 360 692 q 187 443 228 525 q 147 293 147 361 "},"К":{"x_min":102,"x_max":771.046875,"ha":796,"o":"m 102 0 l 102 964 l 196 964 l 196 536 l 390 536 q 440 541 415 536 q 489 562 465 547 q 534 606 514 577 q 571 681 555 636 l 661 964 l 754 964 l 666 684 q 610 565 644 613 q 527 502 576 517 q 624 433 591 484 q 677 312 657 383 l 771 0 l 669 0 l 582 301 q 548 379 568 349 q 506 425 529 409 q 457 448 483 442 q 401 455 430 455 l 196 455 l 196 0 l 102 0 "},"Γ":{"x_min":107,"x_max":707.203125,"ha":717,"o":"m 203 881 l 203 0 l 107 0 l 107 967 l 707 967 l 707 881 l 203 881 "},"%":{"x_min":78,"x_max":987,"ha":1065,"o":"m 987 158 q 972 88 987 119 q 932 36 957 58 q 875 4 907 15 q 809 -7 844 -7 q 742 4 774 -7 q 686 36 710 15 q 647 88 662 58 q 633 158 633 119 l 633 421 q 647 490 633 460 q 686 540 662 520 q 742 572 710 561 q 809 584 774 584 q 875 572 844 584 q 932 540 907 561 q 972 490 957 520 q 987 421 987 460 l 987 158 m 915 415 q 886 489 915 461 q 809 517 858 517 q 733 489 762 517 q 704 415 704 461 l 704 163 q 733 88 704 115 q 809 61 762 61 q 886 88 858 61 q 915 163 915 115 l 915 415 m 432 547 q 417 476 432 506 q 377 425 402 445 q 320 393 352 404 q 254 382 289 382 q 187 393 219 382 q 131 425 155 404 q 92 476 107 445 q 78 547 78 506 l 78 808 q 92 877 78 847 q 131 928 107 908 q 187 960 155 949 q 254 972 219 972 q 320 960 289 972 q 377 928 352 949 q 417 877 402 908 q 432 808 432 847 l 432 547 m 360 802 q 331 876 360 849 q 254 904 303 904 q 178 876 207 904 q 149 802 149 849 l 149 551 q 178 477 149 504 q 254 450 207 450 q 331 477 303 450 q 360 551 360 504 l 360 802 m 293 -29 l 226 -29 l 814 997 l 882 997 l 293 -29 "},"P":{"x_min":108,"x_max":768,"ha":783,"o":"m 768 679 q 749 580 768 630 q 693 490 730 530 q 601 426 656 451 q 474 401 546 401 l 202 401 l 202 0 l 108 0 l 108 967 l 458 967 q 572 951 516 967 q 672 900 629 935 q 741 811 715 866 q 768 679 768 757 m 668 683 q 652 770 668 733 q 607 831 636 807 q 540 868 578 855 q 459 881 502 881 l 202 881 l 202 489 l 464 489 q 556 506 517 489 q 619 550 594 523 q 656 612 644 577 q 668 683 668 647 "},"Έ":{"x_min":-161.125,"x_max":706.59375,"ha":745,"o":"m 107 0 l 107 967 l 706 967 l 706 881 l 201 881 l 201 530 l 631 530 l 631 447 l 201 447 l 201 86 l 706 86 l 706 0 l 107 0 m -161 775 l -55 1007 l 33 976 l -104 753 l -161 775 "},"_":{"x_min":0,"x_max":690.328125,"ha":690,"o":"m 0 -164 l 0 -96 l 690 -96 l 690 -164 l 0 -164 "},"Ρ":{"x_min":108,"x_max":768,"ha":783,"o":"m 768 679 q 749 580 768 630 q 693 490 730 530 q 601 426 656 451 q 474 401 546 401 l 202 401 l 202 0 l 108 0 l 108 967 l 458 967 q 572 951 516 967 q 672 900 629 935 q 741 811 715 866 q 768 679 768 757 m 668 683 q 652 770 668 733 q 607 831 636 807 q 540 868 578 855 q 459 881 502 881 l 202 881 l 202 489 l 464 489 q 556 506 517 489 q 619 550 594 523 q 656 612 644 577 q 668 683 668 647 "},"ѓ":{"x_min":64,"x_max":551.265625,"ha":549,"o":"m 154 608 l 154 0 l 64 0 l 64 686 l 551 686 l 551 608 l 154 608 m 251 795 l 355 1026 l 445 995 l 308 773 l 251 795 "},"ы":{"x_min":74,"x_max":773,"ha":856,"o":"m 685 0 l 685 688 l 773 688 l 773 0 l 685 0 m 518 205 q 481 289 518 252 q 369 326 444 326 l 161 326 l 161 81 l 367 81 q 476 111 434 81 q 518 205 518 141 m 162 407 l 373 407 q 476 391 431 407 q 549 347 520 375 q 593 283 578 319 q 608 205 608 247 q 543 54 608 108 q 366 0 479 0 l 74 0 l 74 689 l 162 689 l 162 407 "},"ї":{"x_min":-50,"x_max":307,"ha":272,"o":"m 207 836 l 207 936 l 307 936 l 307 836 l 207 836 m -50 836 l -50 936 l 50 936 l 50 836 l -50 836 m 89 0 l 89 687 l 183 687 l 183 0 l 89 0 "},"΅":{"x_min":64,"x_max":506,"ha":584,"o":"m 406 829 l 406 929 l 506 929 l 506 829 l 406 829 m 64 829 l 64 929 l 163 929 l 163 829 l 64 829 m 198 796 l 302 1026 l 393 995 l 254 774 l 198 796 "},"T":{"x_min":5.65625,"x_max":663.578125,"ha":670,"o":"m 383 884 l 383 0 l 289 0 l 289 884 l 5 884 l 5 967 l 663 967 l 663 884 l 383 884 "},"Њ":{"x_min":107,"x_max":1259,"ha":1281,"o":"m 599 0 l 599 450 l 201 450 l 201 0 l 107 0 l 107 967 l 201 967 l 201 538 l 599 538 l 599 967 l 693 967 l 693 538 l 957 538 q 1084 517 1028 538 q 1179 460 1140 496 q 1238 376 1218 425 q 1259 273 1259 328 q 1233 149 1259 201 q 1165 63 1207 97 q 1066 15 1122 30 q 949 0 1010 0 l 599 0 m 1160 270 q 1146 337 1160 305 q 1107 394 1133 369 q 1041 434 1080 419 q 952 450 1002 450 l 693 450 l 693 86 l 952 86 q 1034 96 997 86 q 1100 129 1072 106 q 1144 187 1128 152 q 1160 270 1160 222 "},"є":{"x_min":41,"x_max":565.15625,"ha":582,"o":"m 565 79 q 469 15 522 39 q 348 -8 416 -8 q 233 10 288 -8 q 134 69 177 29 q 66 175 91 110 q 41 334 41 240 q 67 500 41 432 q 136 612 93 569 q 235 675 180 655 q 350 696 291 696 q 468 673 416 696 q 561 611 520 650 l 505 547 q 436 595 475 578 q 355 613 398 613 q 199 555 259 613 q 130 383 139 497 l 410 383 l 410 311 l 129 311 q 191 135 135 197 q 355 74 247 74 q 440 94 399 74 q 506 140 481 115 l 565 79 l 565 79 "},"j":{"x_min":-9.78125,"x_max":209,"ha":321,"o":"m 117 877 l 117 967 l 209 967 l 209 877 l 117 877 m 208 -100 q 194 -175 208 -141 q 156 -231 180 -208 q 99 -268 133 -255 q 26 -282 65 -282 l -9 -282 l -9 -203 l 22 -203 q 93 -174 68 -203 q 118 -93 118 -146 l 118 689 l 208 689 l 208 -100 "},"1":{"x_min":177,"x_max":399,"ha":672,"o":"m 399 0 l 310 0 l 310 873 l 177 780 l 177 875 l 308 967 l 399 967 l 399 0 "},"Σ":{"x_min":45.84375,"x_max":644.5,"ha":688,"o":"m 45 0 l 45 83 l 293 498 l 47 890 l 47 967 l 629 967 l 629 884 l 155 884 l 402 498 l 154 86 l 644 86 l 644 0 l 45 0 "},"ћ":{"x_min":18.28125,"x_max":639,"ha":715,"o":"m 18 878 l 103 878 l 103 1007 l 189 1007 l 189 878 l 504 878 l 504 804 l 189 804 l 189 575 l 193 575 q 284 657 227 630 q 400 685 341 685 q 573 625 508 685 q 639 448 639 565 l 639 0 l 551 0 l 551 415 q 510 551 551 503 q 379 599 470 599 q 305 585 340 599 q 245 545 270 571 q 204 483 219 519 q 189 404 189 447 l 189 0 l 103 0 l 103 804 l 18 804 l 18 878 "},"<":{"x_min":51.390625,"x_max":612.546875,"ha":672,"o":"m 612 99 l 51 366 l 51 433 l 612 700 l 612 622 l 138 400 q 189 377 152 394 q 274 337 226 359 q 375 288 322 314 q 477 240 429 262 q 561 201 525 218 q 612 178 598 183 l 612 99 "},"Ц":{"x_min":107,"x_max":857,"ha":893,"o":"m 764 0 l 107 0 l 107 967 l 201 967 l 201 86 l 674 86 l 674 967 l 768 967 l 768 83 l 857 83 l 857 -210 l 764 -210 l 764 0 "},"t":{"x_min":42.5,"x_max":354.109375,"ha":386,"o":"m 280 0 q 167 41 205 0 q 130 161 130 83 l 130 614 l 42 614 l 42 689 l 130 689 l 130 865 l 218 865 l 218 689 l 334 689 l 334 614 l 218 614 l 218 177 q 220 140 218 158 q 233 108 223 122 q 258 86 243 94 q 302 79 274 79 l 354 79 l 354 0 l 280 0 "},"Ф":{"x_min":60,"x_max":954,"ha":1013,"o":"m 954 493 q 926 322 954 397 q 846 194 898 247 q 720 112 794 141 q 553 78 645 82 l 553 0 l 459 0 l 459 78 q 284 116 359 83 q 159 202 209 148 q 84 331 109 257 q 60 493 60 405 q 80 646 60 572 q 148 780 101 721 q 271 876 195 839 q 459 921 348 914 l 459 967 l 553 967 l 553 921 q 737 883 661 916 q 861 793 813 850 q 931 659 909 736 q 954 493 954 583 m 553 157 q 783 246 700 159 q 866 493 866 332 q 787 749 866 657 q 553 844 708 841 l 553 157 m 459 845 q 318 813 377 840 q 221 740 259 786 q 166 631 184 694 q 148 493 148 568 q 166 359 148 419 q 222 257 185 300 q 318 188 260 213 q 459 157 377 162 l 459 845 "},"О":{"x_min":67,"x_max":743,"ha":810,"o":"m 405 974 q 547 947 484 974 q 653 873 609 921 q 720 762 697 826 q 743 622 743 698 l 743 346 q 719 198 743 264 q 652 87 695 133 q 545 17 608 42 q 405 -8 483 -8 q 255 20 319 -8 q 150 97 191 48 q 87 210 108 146 q 67 346 67 275 l 67 622 q 87 756 67 693 q 150 868 108 819 q 256 945 193 917 q 405 974 319 974 m 407 885 q 299 862 345 885 q 222 804 253 840 q 176 719 191 768 q 161 619 161 671 l 161 348 q 176 247 161 296 q 222 161 191 198 q 299 100 253 123 q 407 78 345 78 q 507 98 462 78 q 582 155 551 119 q 630 242 613 191 q 647 351 647 293 l 647 619 q 630 723 647 675 q 583 807 613 772 q 507 864 552 843 q 407 885 462 885 "},"ξ":{"x_min":52,"x_max":583.75,"ha":561,"o":"m 301 97 q 402 61 358 77 q 483 29 446 45 q 549 -16 530 8 q 569 -77 569 -41 q 535 -175 569 -119 q 475 -267 507 -222 l 406 -229 q 428 -191 417 -210 q 450 -148 439 -172 q 463 -123 457 -136 q 469 -98 469 -109 q 405 -36 469 -61 q 331 -9 365 -20 q 255 17 297 2 q 175 55 212 33 q 110 110 137 77 q 67 186 83 143 q 52 287 52 229 q 59 348 52 312 q 86 422 67 384 q 140 494 106 459 q 226 551 173 528 q 154 591 182 565 q 110 648 126 618 q 88 707 94 677 q 82 758 82 737 q 104 864 82 817 q 165 942 126 910 q 256 991 204 974 q 368 1008 308 1008 q 468 997 410 1008 q 583 955 526 987 l 542 879 q 451 915 493 906 q 368 925 408 925 q 288 912 324 925 q 227 877 253 900 q 187 823 201 854 q 174 757 174 793 q 192 688 174 719 q 239 635 210 657 q 305 601 268 613 q 380 589 342 589 l 501 589 l 501 513 l 346 513 q 262 493 299 513 q 199 442 225 474 q 160 371 174 411 q 146 291 146 332 q 186 168 146 212 q 301 97 226 125 "},"&":{"x_min":101,"x_max":830.046875,"ha":876,"o":"m 307 537 q 261 597 282 569 q 225 654 240 626 q 201 708 210 681 q 192 766 192 736 q 205 847 192 808 q 249 915 219 885 q 323 961 278 944 q 428 979 367 979 q 543 960 488 979 q 646 898 598 942 l 591 833 q 506 883 543 871 q 417 896 468 896 q 353 884 380 896 q 310 855 327 873 q 286 813 293 836 q 280 767 280 790 q 300 708 280 746 q 352 622 320 669 q 423 520 384 574 q 503 416 463 467 q 578 320 543 364 q 636 245 613 276 q 676 335 661 289 q 698 425 691 381 q 739 420 718 423 q 781 414 760 417 q 748 292 770 352 q 691 176 727 233 l 830 0 l 723 0 l 634 112 q 510 23 577 54 q 367 -8 443 -8 q 254 10 303 -8 q 170 59 204 28 q 118 134 135 90 q 101 227 101 178 q 152 396 101 322 q 307 537 204 470 m 354 475 q 234 369 279 428 q 189 235 189 310 q 239 116 189 160 q 369 73 290 73 q 487 104 430 73 q 582 178 544 135 q 468 327 523 253 q 354 475 412 400 "},"I":{"x_min":110,"x_max":204,"ha":315,"o":"m 110 0 l 110 967 l 204 967 l 204 0 l 110 0 "},"G":{"x_min":70,"x_max":749,"ha":823,"o":"m 411 73 q 510 93 465 73 q 587 150 554 114 q 637 230 620 185 q 655 325 655 275 l 655 419 l 443 419 l 443 504 l 749 504 l 749 331 q 724 195 749 258 q 656 87 700 133 q 549 15 612 41 q 409 -10 486 -10 q 257 18 321 -10 q 152 96 193 46 q 90 210 110 145 q 70 345 70 274 l 70 622 q 91 756 70 693 q 154 868 112 819 q 260 945 197 917 q 409 974 323 974 q 601 921 522 974 q 716 780 680 868 q 702 773 715 779 q 673 760 689 768 q 645 747 658 753 q 630 740 632 741 q 546 844 602 804 q 411 885 490 885 q 302 862 348 885 q 225 803 255 840 q 179 718 194 766 q 164 618 164 669 l 164 344 q 179 242 164 291 q 225 156 194 193 q 302 95 255 118 q 411 73 349 73 "},"ə":{"x_min":58,"x_max":617,"ha":671,"o":"m 529 368 q 519 464 530 419 q 481 544 508 509 q 414 598 455 578 q 316 619 373 619 q 235 603 279 619 q 156 559 190 587 l 101 619 q 201 678 147 659 q 314 697 255 697 q 420 682 367 697 q 517 629 473 667 q 589 523 561 591 q 617 347 617 455 q 591 176 617 244 q 525 67 565 108 q 434 9 484 26 q 336 -7 384 -7 q 222 15 273 -7 q 135 77 172 37 q 78 174 98 118 q 58 299 58 230 l 58 368 l 529 368 m 150 296 q 202 128 152 183 q 334 74 252 74 q 471 130 419 74 q 529 296 523 187 l 150 296 "},"ΰ":{"x_min":96,"x_max":635,"ha":731,"o":"m 635 243 q 615 138 635 185 q 560 59 596 91 q 475 9 525 26 q 365 -8 425 -8 q 255 10 304 -8 q 170 61 205 28 q 115 140 134 94 q 96 241 96 186 l 96 689 l 184 689 l 184 272 q 233 129 184 183 q 366 75 283 75 q 497 126 448 75 q 547 265 547 177 l 547 689 l 635 689 l 635 243 m 486 829 l 486 929 l 585 929 l 585 829 l 486 829 m 145 829 l 145 929 l 242 929 l 242 829 l 145 829 m 277 795 l 381 1026 l 473 995 l 334 773 l 277 795 "},"`":{"x_min":277.796875,"x_max":472.265625,"ha":676,"o":"m 415 774 l 277 995 l 368 1026 l 472 796 l 415 774 "},"Ђ":{"x_min":5.65625,"x_max":919,"ha":965,"o":"m 384 555 q 494 625 431 599 q 627 651 557 651 q 736 632 684 651 q 830 575 789 614 q 894 474 870 535 q 919 326 919 412 q 898 181 919 248 q 833 67 877 115 q 720 -5 788 19 q 555 -25 651 -30 l 555 53 q 757 114 690 47 q 825 316 825 182 q 767 501 825 437 q 613 565 709 565 q 492 535 553 565 q 383 452 431 506 l 383 0 l 289 0 l 289 884 l 5 884 l 5 967 l 763 967 l 763 884 l 383 884 l 383 555 l 384 555 "},"я":{"x_min":39.46875,"x_max":594,"ha":676,"o":"m 63 483 q 77 564 63 526 q 119 629 92 601 q 184 672 146 657 q 271 688 222 688 l 594 688 l 594 0 l 506 0 l 506 299 l 307 299 q 226 277 261 297 q 176 193 192 257 l 129 0 l 39 0 l 88 196 q 118 273 99 239 q 178 322 138 308 q 90 384 118 339 q 63 483 63 429 m 149 486 q 189 398 149 425 q 293 371 229 371 l 506 371 l 506 612 l 283 612 q 188 579 228 612 q 149 486 149 546 "},"Ё":{"x_min":107,"x_max":706.59375,"ha":745,"o":"m 107 0 l 107 967 l 706 967 l 706 881 l 201 881 l 201 530 l 631 530 l 631 447 l 201 447 l 201 86 l 706 86 l 706 0 l 107 0 m 485 1063 l 485 1160 l 585 1160 l 585 1063 l 485 1063 m 236 1063 l 236 1160 l 336 1160 l 336 1063 l 236 1063 "},"φ":{"x_min":61,"x_max":757,"ha":817,"o":"m 451 71 q 561 95 509 71 q 636 173 613 120 q 662 241 655 201 q 669 344 669 281 q 662 448 669 406 q 639 520 655 490 q 564 592 615 569 q 451 615 512 615 l 451 71 m 361 -8 q 227 16 288 -5 q 130 82 166 37 q 77 188 94 125 q 61 342 61 250 q 68 453 61 400 q 97 550 76 506 q 155 628 118 595 q 249 681 192 661 l 276 604 q 209 560 235 586 q 170 499 183 533 q 153 425 157 465 q 149 340 149 385 q 158 229 149 271 q 190 154 168 186 q 261 92 215 114 q 361 70 306 70 l 361 696 l 456 696 q 604 667 538 696 q 705 584 669 639 q 745 485 733 543 q 757 343 757 428 q 698 104 757 180 q 602 26 665 55 q 451 -8 540 -3 l 451 -276 l 361 -276 l 361 -8 "},";":{"x_min":75.265625,"x_max":199,"ha":286,"o":"m 75 -147 l 115 0 l 85 0 l 85 122 l 199 122 l 199 -6 l 130 -147 l 75 -147 m 86 415 l 86 537 l 199 537 l 199 415 l 86 415 "},"Г":{"x_min":107,"x_max":707.203125,"ha":717,"o":"m 203 881 l 203 0 l 107 0 l 107 967 l 707 967 l 707 881 l 203 881 "},"6":{"x_min":74,"x_max":607,"ha":672,"o":"m 607 290 q 583 153 607 210 q 520 60 559 96 q 432 8 482 25 q 330 -8 382 -8 q 236 10 282 -8 q 154 63 190 28 q 96 151 118 98 q 74 275 74 204 q 82 356 74 317 q 110 432 90 396 l 377 967 l 475 967 l 253 525 l 255 523 q 307 546 279 539 q 362 553 336 553 q 459 533 414 553 q 536 479 504 514 q 588 396 569 444 q 607 290 607 347 m 517 278 q 503 362 517 325 q 464 424 489 399 q 408 463 440 450 q 339 477 376 477 q 269 463 301 477 q 212 424 236 450 q 173 362 187 399 q 160 278 160 325 q 207 127 160 183 q 339 71 255 71 q 409 85 376 71 q 465 126 441 100 q 503 191 489 153 q 517 278 517 229 "},"Ь":{"x_min":88,"x_max":746,"ha":778,"o":"m 88 0 l 88 967 l 182 967 l 182 538 l 444 538 q 572 517 516 538 q 666 460 627 496 q 725 376 705 425 q 746 273 746 328 q 721 149 746 201 q 652 63 696 97 q 554 15 609 30 q 437 0 498 0 l 88 0 m 649 270 q 635 337 649 305 q 596 394 622 369 q 530 434 569 419 q 441 450 491 450 l 182 450 l 182 86 l 441 86 q 523 96 485 86 q 589 129 561 106 q 633 187 617 152 q 649 270 649 222 "},"ϊ":{"x_min":-42,"x_max":315,"ha":300,"o":"m 250 0 q 236 -1 243 -1 q 223 -1 229 -1 q 127 26 155 -1 q 99 127 99 54 l 99 686 l 185 686 l 185 143 q 197 88 185 100 q 247 76 210 76 l 250 76 l 250 0 m 215 836 l 215 936 l 315 936 l 315 836 l 215 836 m -42 836 l -42 936 l 58 936 l 58 836 l -42 836 "},"ά":{"x_min":71,"x_max":613,"ha":699,"o":"m 71 332 q 82 468 71 403 q 123 584 94 534 q 202 665 152 634 q 329 696 252 696 q 431 674 380 696 q 522 591 483 652 l 525 592 l 525 688 l 613 688 l 613 0 l 525 0 l 525 101 l 522 101 q 437 21 485 51 q 323 -8 388 -8 q 200 21 248 -8 q 123 99 151 51 q 82 208 94 147 q 71 332 71 269 m 163 343 q 169 251 163 297 q 195 165 175 204 q 251 102 215 126 q 344 78 286 78 q 434 102 398 78 q 489 165 469 126 q 517 251 509 204 q 525 344 525 298 q 518 433 525 386 q 493 519 512 479 q 439 586 475 560 q 344 613 404 613 q 248 587 283 613 q 193 521 212 561 q 168 434 174 482 q 163 343 163 386 m 286 795 l 390 1026 l 480 995 l 343 773 l 286 795 "},"n":{"x_min":81,"x_max":619,"ha":701,"o":"m 531 0 l 531 426 q 490 562 531 514 q 354 610 449 610 q 282 596 316 610 q 223 556 248 582 q 183 494 198 530 q 169 414 169 458 l 169 0 l 81 0 l 81 689 l 169 689 l 169 586 l 173 586 q 264 668 207 641 q 380 696 321 696 q 477 680 432 696 q 553 635 521 665 q 601 561 584 605 q 619 458 619 516 l 619 0 l 531 0 "},"κ":{"x_min":96,"x_max":677.09375,"ha":685,"o":"m 575 0 q 525 76 559 25 q 454 184 492 127 q 383 293 417 241 q 334 369 349 344 q 302 334 322 357 q 258 286 281 311 q 214 238 235 261 q 184 202 193 215 l 184 0 l 96 0 l 96 689 l 184 689 l 184 318 l 186 318 q 228 363 202 334 q 286 428 254 393 q 352 502 318 463 q 418 577 386 541 q 476 642 450 612 q 517 689 502 672 l 621 689 l 392 432 l 677 0 l 575 0 "},"p":{"x_min":79,"x_max":621,"ha":689,"o":"m 167 689 l 167 593 l 170 591 q 265 674 211 652 q 372 696 319 696 q 495 666 447 696 q 571 589 543 637 q 609 477 598 540 q 621 347 621 414 q 609 218 621 282 q 567 104 597 154 q 485 23 537 54 q 354 -8 433 -8 q 244 17 289 -8 q 170 87 199 43 l 167 87 l 167 -275 l 79 -275 l 79 689 l 167 689 m 167 344 q 174 248 167 296 q 201 162 182 200 q 256 101 221 125 q 345 78 291 78 q 441 102 405 78 q 497 165 477 126 q 522 251 516 204 q 529 343 529 297 q 524 434 529 386 q 501 521 519 482 q 449 587 484 561 q 352 613 413 613 q 257 586 294 613 q 200 519 221 560 q 173 433 180 479 q 167 344 167 386 "},"Ю":{"x_min":105,"x_max":983,"ha":1052,"o":"m 663 974 q 805 948 745 974 q 904 876 864 922 q 963 765 944 829 q 983 625 983 701 l 983 343 q 961 198 983 264 q 898 87 939 133 q 798 17 857 42 q 663 -8 739 -8 q 514 21 575 -8 q 415 98 453 50 q 360 211 377 147 q 344 345 344 274 l 344 447 l 201 447 l 201 0 l 105 0 l 105 967 l 201 967 l 201 530 l 344 530 l 344 621 q 362 755 344 691 q 421 868 381 819 q 520 945 460 916 q 663 974 580 974 m 665 885 q 557 861 600 885 q 487 799 514 837 q 449 713 460 761 q 438 616 438 665 l 438 348 q 449 247 438 296 q 488 161 461 198 q 558 100 515 123 q 665 78 601 78 q 765 98 723 78 q 835 155 808 119 q 874 242 862 191 q 887 351 887 293 l 887 616 q 874 718 887 669 q 835 803 862 766 q 767 862 809 840 q 665 885 724 885 "},"S":{"x_min":15.28125,"x_max":710,"ha":746,"o":"m 710 265 q 685 152 710 202 q 616 66 661 101 q 509 11 572 30 q 369 -8 446 -8 q 184 21 277 -8 q 15 110 90 50 l 75 186 q 212 108 136 135 q 373 81 289 81 q 467 92 423 81 q 544 126 511 103 q 594 183 576 149 q 613 266 613 218 q 592 347 613 315 q 537 399 571 379 q 459 431 503 419 q 370 451 416 443 q 261 475 315 461 q 164 516 206 488 q 95 588 121 543 q 69 708 69 634 q 92 821 69 772 q 158 905 116 870 q 256 957 199 939 q 380 976 313 976 q 675 890 557 976 l 623 811 q 508 864 568 845 q 379 884 447 884 q 224 840 285 884 q 163 707 163 796 q 183 633 163 662 q 238 586 203 605 q 322 555 274 567 q 428 533 371 544 q 528 507 478 521 q 619 464 579 492 q 685 388 660 435 q 710 265 710 340 "},"ο":{"x_min":67,"x_max":630.125,"ha":697,"o":"m 356 695 q 488 665 431 695 q 580 582 545 636 q 617 485 603 546 q 630 339 631 425 q 612 200 628 257 q 570 104 596 143 q 471 19 531 46 q 341 -8 412 -8 q 129 83 200 -8 q 81 191 96 128 q 67 343 67 254 q 80 475 67 421 q 121 571 94 529 q 216 662 157 629 q 356 695 276 695 m 353 617 q 260 593 300 617 q 196 529 220 569 q 165 452 175 496 q 155 341 155 408 q 165 230 155 275 q 195 152 175 184 q 256 92 218 114 q 346 71 295 71 q 443 94 400 71 q 510 171 486 118 q 532 239 523 198 q 542 341 542 279 q 534 449 542 408 q 512 518 526 490 q 353 617 462 617 "},"/":{"x_min":36.109375,"x_max":536.15625,"ha":613,"o":"m 106 -47 l 36 -47 l 463 1003 l 536 1003 l 106 -47 "},"Τ":{"x_min":5.65625,"x_max":663.578125,"ha":670,"o":"m 383 884 l 383 0 l 289 0 l 289 884 l 5 884 l 5 967 l 663 967 l 663 884 l 383 884 "},"y":{"x_min":2.78125,"x_max":590.328125,"ha":596,"o":"m 293 -150 q 220 -252 265 -226 q 122 -278 175 -278 l 76 -278 l 76 -200 l 120 -200 q 178 -181 152 -200 q 219 -112 204 -162 l 256 2 l 2 688 l 100 688 l 212 369 l 298 115 l 302 115 q 340 227 316 157 q 391 376 363 297 l 498 688 l 590 688 l 293 -150 l 293 -150 "},"ђ":{"x_min":14.265625,"x_max":669,"ha":750,"o":"m 14 875 l 99 875 l 99 1006 l 185 1006 l 185 875 l 523 875 l 523 803 l 185 803 l 185 575 q 187 574 186 575 q 189 573 187 573 q 279 661 225 635 q 401 688 333 688 q 598 602 527 688 q 669 337 669 516 q 650 201 669 265 q 592 90 631 138 q 496 14 554 42 q 361 -13 439 -13 q 347 -13 353 -13 q 330 -11 342 -13 l 330 64 q 345 63 337 63 q 360 63 353 63 q 455 83 414 63 q 525 139 497 103 q 567 225 553 175 q 581 333 581 274 q 570 440 581 390 q 535 528 560 490 q 471 587 511 565 q 372 609 430 609 q 306 595 337 609 q 250 556 275 582 q 209 492 225 531 q 189 403 193 454 q 185 318 185 362 l 185 0 l 99 0 l 99 803 l 14 803 l 14 875 "},"ΐ":{"x_min":-71,"x_max":371,"ha":300,"o":"m 250 0 q 236 -1 243 -1 q 223 -1 229 -1 q 127 26 155 -1 q 99 127 99 54 l 99 686 l 185 686 l 185 143 q 197 88 185 100 q 247 76 210 76 l 250 76 l 250 0 m 271 829 l 271 929 l 371 929 l 371 829 l 271 829 m -71 829 l -71 929 l 28 929 l 28 829 l -71 829 m 63 795 l 168 1026 l 258 995 l 119 773 l 63 795 "},"Π":{"x_min":107,"x_max":768,"ha":876,"o":"m 674 0 l 674 884 l 201 884 l 201 0 l 107 0 l 107 967 l 768 967 l 768 0 l 674 0 "},"g":{"x_min":65,"x_max":608.375,"ha":701,"o":"m 608 8 q 583 -125 608 -69 q 519 -216 559 -180 q 424 -268 478 -251 q 312 -285 370 -285 q 205 -264 257 -285 q 110 -204 153 -244 l 167 -140 q 234 -183 195 -164 q 316 -202 273 -202 q 459 -152 402 -202 q 519 -7 517 -102 l 519 96 l 516 96 q 427 17 478 42 q 314 -7 377 -7 q 192 22 241 -7 q 116 99 144 51 q 76 208 88 147 q 65 333 65 269 q 76 466 65 401 q 117 583 88 531 q 196 665 146 634 q 320 697 245 697 q 423 677 371 697 q 516 602 475 658 l 519 602 l 519 689 l 607 689 l 608 8 m 155 344 q 161 251 155 298 q 187 165 167 203 q 243 103 207 127 q 339 79 280 79 q 428 102 393 79 q 483 163 463 126 q 511 249 503 201 q 519 345 519 296 q 512 433 519 387 q 487 519 506 480 q 432 585 467 559 q 339 612 398 612 q 241 586 278 612 q 185 521 205 560 q 160 434 166 481 q 155 344 155 387 "},"б":{"x_min":63,"x_max":627,"ha":690,"o":"m 350 588 q 262 567 300 588 q 200 510 223 546 q 164 425 176 474 q 153 326 153 376 q 159 235 153 274 q 182 164 165 196 q 244 95 205 120 q 346 70 283 70 q 457 101 411 70 q 525 196 504 132 q 536 255 533 222 q 539 329 539 288 q 530 433 539 392 q 507 501 522 475 q 448 565 483 542 q 350 588 412 588 m 362 667 q 572 568 504 667 q 613 469 600 528 q 627 330 627 410 q 616 207 627 258 q 582 117 606 157 q 484 23 546 54 q 345 -8 422 -8 q 213 17 269 -8 q 119 97 156 43 q 77 209 92 141 q 63 394 63 278 q 69 535 65 482 q 79 620 74 589 q 159 818 100 741 q 331 938 219 894 q 432 973 376 955 q 559 1018 488 991 l 585 949 q 470 907 516 922 q 392 880 424 893 q 286 825 330 855 q 215 757 242 795 q 172 671 187 719 q 154 561 158 623 q 157 559 155 561 q 246 639 190 611 q 362 667 303 667 "},"J":{"x_min":30.6875,"x_max":540,"ha":636,"o":"m 540 285 q 515 146 540 201 q 450 55 491 90 q 356 6 409 21 q 243 -8 302 -8 q 123 16 176 -8 q 30 81 69 40 l 98 143 q 164 98 130 115 q 237 81 198 81 q 316 91 279 81 q 383 126 354 101 q 429 194 412 151 q 446 304 446 237 l 446 967 l 540 967 l 540 285 "},"у":{"x_min":2.78125,"x_max":590.328125,"ha":596,"o":"m 293 -150 q 221 -248 268 -219 q 122 -278 175 -278 l 86 -278 l 86 -200 l 120 -200 q 179 -176 152 -200 q 219 -112 206 -152 l 256 2 l 2 688 l 100 688 l 212 369 l 298 115 l 302 115 q 340 227 316 157 q 391 376 363 297 l 498 688 l 590 688 l 293 -150 l 293 -150 "},"Ј":{"x_min":30.6875,"x_max":540,"ha":636,"o":"m 540 285 q 515 146 540 201 q 450 55 491 90 q 356 6 409 21 q 243 -8 302 -8 q 123 16 176 -8 q 30 81 69 40 l 98 143 q 164 98 130 115 q 237 81 198 81 q 316 91 279 81 q 383 126 354 101 q 429 194 412 151 q 446 304 446 237 l 446 967 l 540 967 l 540 285 "},"ώ":{"x_min":62,"x_max":979,"ha":1035,"o":"m 750 693 q 856 660 812 687 q 927 587 900 633 q 966 480 954 542 q 979 343 979 418 q 964 198 979 262 q 918 87 949 133 q 839 17 887 41 q 723 -7 791 -7 q 606 20 659 -7 q 518 114 553 47 q 431 21 482 51 q 317 -8 379 -8 q 199 17 247 -8 q 120 87 150 42 q 75 198 89 133 q 62 342 62 262 q 116 586 62 493 q 293 693 170 679 l 304 610 q 187 528 225 599 q 150 340 150 458 q 159 232 150 280 q 188 148 169 183 q 239 93 208 112 q 315 74 270 74 q 383 89 354 74 q 432 130 412 104 q 461 189 451 155 q 471 261 471 224 l 471 521 l 559 521 l 559 261 q 569 189 559 224 q 600 130 579 155 q 652 89 621 104 q 725 75 683 75 q 848 147 808 75 q 889 342 889 219 q 852 529 889 460 q 736 611 816 599 l 750 693 m 461 795 l 566 1025 q 610 1009 589 1018 q 655 994 632 1001 l 516 773 l 461 795 "},"ґ":{"x_min":81,"x_max":567,"ha":571,"o":"m 567 610 l 169 610 l 169 0 l 81 0 l 81 689 l 482 689 l 482 828 l 567 828 l 567 610 "},"D":{"x_min":107,"x_max":777,"ha":849,"o":"m 421 967 q 613 925 530 967 q 740 789 696 883 q 771 664 765 736 q 777 500 777 591 q 772 321 777 397 q 743 188 767 245 q 685 98 720 134 q 606 40 650 62 q 509 9 561 19 q 399 0 457 0 l 107 0 l 107 967 l 421 967 m 683 575 q 663 720 683 661 q 608 814 644 779 q 523 865 573 850 q 413 881 473 881 l 201 881 l 201 86 l 413 86 q 540 107 488 86 q 623 168 592 129 q 669 263 655 208 q 683 384 683 318 l 683 575 "},"ц":{"x_min":83,"x_max":704,"ha":738,"o":"m 83 0 l 83 688 l 171 688 l 171 78 l 533 78 l 533 688 l 619 688 l 619 78 l 704 78 l 704 -185 l 616 -185 l 616 0 l 83 0 "},"Л":{"x_min":6.640625,"x_max":772,"ha":886,"o":"m 772 967 l 772 0 l 678 0 l 678 884 l 284 884 l 284 423 q 266 232 284 310 q 215 104 248 154 q 136 25 183 54 q 33 -18 89 -2 q 19 21 26 1 q 6 61 13 41 q 83 103 49 80 q 141 166 117 126 q 177 272 165 207 q 190 443 190 337 l 190 967 l 772 967 "},"$":{"x_min":38.75,"x_max":632,"ha":672,"o":"m 367 76 q 491 128 443 83 q 540 253 540 174 q 522 331 540 301 q 479 381 505 362 q 422 410 452 399 q 366 430 393 420 l 367 76 m 311 880 q 196 827 244 873 q 149 695 149 782 q 164 631 149 658 q 203 586 179 604 q 254 556 226 568 q 311 537 283 544 l 311 880 m 311 -164 l 311 -8 q 165 21 235 -4 q 38 95 94 47 q 64 131 51 112 q 91 166 77 151 q 192 105 135 130 q 311 74 248 80 l 311 442 q 215 474 261 455 q 134 522 169 492 q 77 594 98 552 q 57 698 57 637 q 75 799 57 752 q 125 881 93 847 q 205 937 158 916 q 311 963 252 959 l 311 1072 l 367 1072 l 367 962 q 485 940 428 958 q 590 890 543 922 q 568 852 579 872 q 546 815 557 833 q 460 856 505 840 q 367 878 415 873 l 367 522 q 472 489 423 506 q 556 442 521 472 q 611 367 591 412 q 632 254 632 322 q 612 149 632 195 q 558 68 593 102 q 475 15 523 34 q 367 -8 426 -4 l 367 -164 l 311 -164 "},"w":{"x_min":9.71875,"x_max":976.46875,"ha":988,"o":"m 718 125 l 773 321 l 879 688 l 976 688 q 950 605 966 658 q 911 484 933 551 q 866 344 890 416 q 822 203 843 271 q 784 82 801 136 q 758 0 766 27 l 672 0 q 649 70 665 22 q 616 173 633 119 q 583 275 598 226 q 559 347 568 323 q 525 452 541 400 q 491 558 509 504 q 458 452 475 505 q 425 347 441 398 q 401 276 416 325 q 368 173 386 227 q 336 70 351 119 q 312 0 320 22 l 226 0 q 200 82 218 27 q 162 203 183 136 q 118 344 141 271 q 73 484 94 416 q 35 605 52 551 q 9 688 18 658 l 105 688 q 127 612 112 664 q 159 503 143 560 q 191 394 176 446 q 213 318 206 341 l 269 130 l 273 130 q 303 223 288 176 q 331 315 318 271 q 356 391 340 339 q 392 501 373 443 q 427 612 411 560 q 451 688 444 664 l 534 688 q 559 612 543 664 q 593 503 575 560 q 628 394 612 446 q 652 318 644 342 l 712 125 l 718 125 "},"\\":{"x_min":-2.78125,"x_max":416.703125,"ha":424,"o":"m -2 1007 l 66 1007 l 416 -58 l 345 -58 l -2 1007 "},"о":{"x_min":67,"x_max":630.125,"ha":697,"o":"m 356 695 q 488 665 431 695 q 580 582 545 636 q 617 485 603 546 q 630 339 631 425 q 612 200 628 257 q 570 104 596 143 q 471 19 531 46 q 341 -8 412 -8 q 129 83 200 -8 q 81 191 96 128 q 67 343 67 254 q 80 475 67 421 q 121 571 94 529 q 216 662 157 629 q 356 695 276 695 m 353 617 q 260 593 300 617 q 196 529 220 569 q 165 452 175 496 q 155 341 155 408 q 165 230 155 275 q 195 152 175 184 q 256 92 218 114 q 346 71 295 71 q 443 94 400 71 q 510 171 486 118 q 532 239 523 198 q 542 341 542 279 q 534 449 542 408 q 512 518 526 490 q 353 617 462 617 "},"Д":{"x_min":27,"x_max":927,"ha":974,"o":"m 847 83 l 927 82 l 927 -210 l 835 -210 l 835 0 l 121 0 l 121 -210 l 27 -210 l 27 70 q 58 78 42 74 q 90 84 75 81 q 154 142 129 106 q 193 235 178 179 q 217 371 209 291 q 229 562 225 451 l 246 967 l 847 967 l 847 83 m 753 884 l 333 884 l 319 552 q 293 262 312 377 q 220 83 274 148 l 753 83 l 753 884 "},"ъ":{"x_min":9.359375,"x_max":768,"ha":789,"o":"m 678 205 q 641 288 678 252 q 528 324 605 324 l 320 325 l 320 81 l 527 81 q 636 111 594 81 q 678 205 678 141 m 321 407 l 532 407 q 635 391 591 407 q 709 347 680 375 q 753 283 738 319 q 768 205 768 247 q 703 54 768 108 q 526 0 638 0 l 233 0 l 233 611 l 9 611 l 9 689 l 321 689 l 321 407 "},"ς":{"x_min":72,"x_max":607.09375,"ha":589,"o":"m 294 18 q 195 66 237 40 q 126 128 154 92 q 85 215 98 165 q 72 336 72 265 q 99 500 72 432 q 170 612 126 569 q 269 675 214 655 q 382 696 325 696 q 498 677 440 696 q 607 614 557 659 q 578 580 591 598 q 550 545 565 562 q 470 592 514 577 q 386 608 427 608 q 223 539 282 608 q 164 341 164 470 q 193 204 164 261 q 305 114 223 147 q 386 81 346 97 q 467 48 426 65 q 542 -1 519 27 q 565 -66 565 -30 q 540 -146 565 -102 q 474 -244 516 -191 l 407 -205 q 427 -171 419 -182 q 443 -144 434 -160 q 457 -112 451 -128 q 464 -84 464 -96 q 398 -19 464 -45 l 294 18 "},"C":{"x_min":72,"x_max":722.984375,"ha":745,"o":"m 722 192 q 606 45 686 99 q 411 -8 525 -8 q 259 20 322 -8 q 153 97 195 48 q 91 210 111 146 q 72 346 72 275 l 72 622 q 92 756 72 693 q 154 868 112 819 q 260 945 196 917 q 411 974 324 974 q 603 921 524 974 q 720 780 682 868 l 632 740 q 550 844 606 804 q 413 885 493 885 q 300 862 347 885 q 223 803 253 840 q 179 718 193 767 q 166 618 166 669 l 166 350 q 179 249 166 297 q 222 163 193 200 q 299 102 252 125 q 413 80 346 80 q 551 121 495 80 q 635 234 607 163 l 722 192 "},"!":{"x_min":108.34375,"x_max":209.734375,"ha":315,"o":"m 188 253 l 125 253 l 113 967 l 201 967 l 188 253 m 108 0 l 108 110 l 209 110 l 209 0 l 108 0 "},"Й":{"x_min":101,"x_max":816,"ha":915,"o":"m 348 1163 q 384 1096 354 1125 q 459 1068 415 1068 q 536 1095 508 1068 q 570 1163 565 1122 l 647 1163 q 632 1107 643 1136 q 600 1053 622 1078 q 543 1012 577 1028 q 459 996 509 996 q 372 1012 408 996 q 315 1053 337 1028 q 282 1107 293 1078 q 270 1163 272 1136 l 348 1163 m 722 0 l 722 796 q 720 796 720 796 q 719 797 720 797 q 455 398 587 598 q 192 0 324 198 l 101 0 l 101 967 l 195 967 l 195 151 q 198 150 195 151 q 466 557 332 354 q 735 967 599 761 l 816 967 l 816 0 l 722 0 "},"X":{"x_min":6.9375,"x_max":702.828125,"ha":711,"o":"m 598 0 l 355 420 l 111 0 l 6 0 l 302 496 l 26 967 l 131 967 l 355 571 l 579 967 l 683 967 l 406 496 l 702 0 l 598 0 "},"Б":{"x_min":88,"x_max":746,"ha":792,"o":"m 88 0 l 88 967 l 669 967 l 669 881 l 182 881 l 182 538 l 445 538 q 572 517 517 538 q 667 460 628 496 q 725 376 705 425 q 746 273 746 328 q 720 149 746 201 q 652 63 694 97 q 553 15 609 30 q 436 0 497 0 l 88 0 m 649 270 q 635 337 649 305 q 596 394 622 369 q 531 434 570 419 q 442 450 492 450 l 182 450 l 182 86 l 441 86 q 523 96 485 86 q 589 129 561 106 q 633 187 617 152 q 649 270 649 222 "},"г":{"x_min":81,"x_max":566.265625,"ha":571,"o":"m 169 611 l 169 0 l 81 0 l 81 689 l 566 689 l 566 611 l 169 611 "},"х":{"x_min":30.5625,"x_max":597.265625,"ha":628,"o":"m 491 0 l 313 288 l 136 0 l 30 0 l 262 352 l 41 689 l 147 689 l 313 412 l 480 689 l 586 689 l 365 351 l 597 0 l 491 0 "},"}":{"x_min":26,"x_max":329.78125,"ha":344,"o":"m 329 383 q 249 322 271 372 q 227 191 227 273 l 227 -1 q 193 -107 227 -67 q 107 -147 160 -147 l 26 -147 l 26 -90 l 78 -90 q 115 -78 101 -90 q 136 -47 129 -66 q 147 -6 144 -28 q 150 36 150 15 l 150 226 q 159 300 150 268 q 184 356 169 333 q 216 393 200 379 q 248 411 233 406 l 248 413 q 217 431 234 418 q 185 468 200 445 q 160 524 170 491 q 150 602 150 558 l 150 783 q 148 825 150 803 q 140 865 147 846 q 118 896 133 884 q 78 908 104 908 l 26 908 l 26 962 l 105 962 q 196 921 166 962 q 226 819 226 881 l 226 631 q 230 565 226 598 q 247 506 235 533 q 280 461 260 480 q 329 437 300 442 l 329 383 l 329 383 "},"Δ":{"x_min":13.890625,"x_max":807.015625,"ha":822,"o":"m 13 0 q 189 483 101 243 q 366 967 277 723 l 452 967 l 807 0 l 13 0 m 406 856 q 362 721 384 788 q 316 585 340 653 q 293 517 306 558 q 263 430 279 477 q 229 334 247 384 q 195 237 212 284 q 165 151 179 191 q 141 83 151 110 l 677 83 l 502 587 q 455 721 476 653 q 411 856 434 788 l 406 856 "},"Ч":{"x_min":78,"x_max":725,"ha":832,"o":"m 172 967 l 172 694 q 226 529 172 586 q 386 472 281 472 q 504 490 439 472 q 631 556 569 509 l 631 967 l 725 967 l 725 0 l 631 0 l 631 466 l 628 466 q 491 404 557 420 q 366 389 426 389 q 251 407 304 389 q 160 461 198 425 q 100 552 122 498 q 78 680 78 607 l 78 967 l 172 967 "},"N":{"x_min":108,"x_max":821,"ha":928,"o":"m 371 544 l 205 805 q 203 805 203 805 q 202 804 203 804 l 202 0 l 108 0 l 108 967 l 202 967 l 551 433 l 726 157 l 729 159 l 729 967 l 821 967 l 821 0 l 729 0 l 371 544 "},"2":{"x_min":67.296875,"x_max":603,"ha":672,"o":"m 67 0 l 67 87 l 454 584 q 494 655 479 616 q 509 730 509 694 q 498 791 509 762 q 466 841 488 819 q 413 876 445 864 q 340 889 382 889 q 227 847 275 889 q 165 739 179 805 l 77 751 q 111 843 86 802 q 170 913 135 884 q 249 956 206 941 q 342 972 293 972 q 448 955 400 972 q 530 907 496 938 q 583 832 564 876 q 603 733 603 788 q 586 638 603 688 q 535 545 570 588 l 175 86 l 595 86 l 595 0 l 67 0 "},"М":{"x_min":107,"x_max":941,"ha":1035,"o":"m 847 754 q 844 753 847 754 q 789 631 816 690 q 734 509 762 572 l 563 147 l 483 147 q 396 331 439 239 q 311 516 354 423 l 202 754 q 199 753 202 753 l 199 0 l 107 0 l 107 967 l 200 967 l 411 512 q 433 464 416 500 q 468 386 450 427 q 502 309 486 345 q 524 261 518 273 l 526 261 l 622 473 l 850 967 l 941 967 l 941 0 l 847 0 l 847 754 "},"ь":{"x_min":75,"x_max":609,"ha":622,"o":"m 519 205 q 482 288 519 252 q 370 324 446 324 l 162 325 l 162 81 l 368 81 q 477 111 435 81 q 519 205 519 141 m 163 407 l 374 407 q 477 391 432 407 q 550 347 521 375 q 594 283 579 319 q 609 205 609 247 q 544 54 609 108 q 369 0 480 0 l 75 0 l 76 689 l 163 689 l 163 407 "},"Ў":{"x_min":30.5625,"x_max":708.390625,"ha":725,"o":"m 708 968 q 557 568 633 766 q 404 169 481 370 q 360 78 383 113 q 312 22 337 42 q 259 -5 287 2 q 197 -13 230 -13 l 129 -13 l 129 73 l 179 73 q 249 92 220 73 q 302 168 277 111 q 311 192 308 181 q 320 214 315 203 q 175 589 247 403 q 30 965 102 776 l 131 965 l 259 617 q 284 554 269 594 q 316 471 300 514 q 348 389 333 428 q 372 326 363 349 l 376 326 q 419 444 393 373 q 475 594 445 515 l 611 968 l 708 968 m 268 1171 q 304 1104 273 1133 q 379 1076 334 1076 q 456 1103 427 1076 q 490 1171 484 1130 l 566 1171 q 552 1115 562 1144 q 519 1061 541 1086 q 463 1020 497 1036 q 379 1004 429 1004 q 292 1020 327 1004 q 234 1061 256 1036 q 202 1115 212 1086 q 190 1171 191 1144 l 268 1171 "},"Η":{"x_min":107,"x_max":768,"ha":876,"o":"m 674 0 l 674 447 l 201 447 l 201 0 l 107 0 l 107 967 l 201 967 l 201 530 l 674 530 l 674 967 l 768 967 l 768 0 l 674 0 "},"в":{"x_min":80,"x_max":615,"ha":654,"o":"m 615 195 q 598 116 615 152 q 552 54 581 80 q 485 14 523 29 q 403 0 446 0 l 80 0 l 80 688 l 371 688 q 470 673 428 688 q 541 633 513 658 q 584 575 570 608 q 598 504 598 541 q 575 422 598 463 q 496 356 552 380 q 553 328 530 346 q 589 289 576 310 q 608 242 602 267 q 615 195 615 217 m 510 500 q 473 580 510 549 q 362 612 437 612 l 168 612 l 168 387 l 369 387 q 475 419 440 387 q 510 500 510 451 m 529 195 q 492 281 529 244 q 380 318 456 318 l 168 318 l 168 79 l 380 79 q 492 114 455 79 q 529 195 529 149 "},"С":{"x_min":72,"x_max":722.984375,"ha":745,"o":"m 722 192 q 606 45 686 99 q 411 -8 525 -8 q 261 20 325 -8 q 156 97 197 48 q 93 210 114 146 q 72 346 72 275 l 72 622 q 93 756 72 693 q 156 868 114 819 q 263 945 199 917 q 411 974 327 974 q 603 921 524 974 q 720 780 682 868 l 632 740 q 550 844 606 804 q 413 885 493 885 q 304 862 350 885 q 227 803 259 840 q 181 718 196 767 q 166 618 166 669 l 166 350 q 181 249 166 297 q 227 163 196 200 q 304 102 259 125 q 413 80 350 80 q 551 121 495 80 q 635 234 607 163 l 722 192 "},"њ":{"x_min":84,"x_max":1007,"ha":1036,"o":"m 915 207 q 878 290 915 252 q 768 329 842 329 l 560 329 l 560 81 l 766 81 q 874 112 833 81 q 915 207 915 143 m 561 689 l 561 410 l 772 410 q 875 393 830 410 q 948 348 919 376 q 992 284 977 321 q 1007 208 1007 248 q 941 54 1007 108 q 765 0 876 0 l 473 0 l 473 332 l 172 332 l 172 0 l 84 0 l 84 689 l 172 689 l 172 411 l 473 411 l 473 689 l 561 689 "},"s":{"x_min":28.25,"x_max":576,"ha":627,"o":"m 576 195 q 504 48 576 105 q 308 -8 433 -8 q 160 13 233 -8 q 28 83 87 35 l 82 151 q 315 70 181 70 q 377 76 346 70 q 433 99 408 83 q 472 138 457 114 q 488 196 488 161 q 474 247 488 226 q 435 281 460 268 q 379 301 411 294 q 312 312 347 308 q 226 326 269 318 q 148 353 183 335 q 91 405 113 372 q 69 491 69 437 q 88 577 69 539 q 141 641 107 615 q 220 682 174 668 q 318 696 266 696 q 451 678 395 696 q 555 626 507 661 l 506 556 q 421 599 466 583 q 320 615 375 615 q 201 583 246 615 q 155 495 156 552 q 168 448 155 466 q 208 418 182 430 q 269 399 234 406 q 349 387 305 393 q 428 372 388 383 q 501 339 469 361 q 555 283 534 318 q 576 195 576 248 "},"?":{"x_min":51.015625,"x_max":602,"ha":653,"o":"m 51 722 q 94 831 66 784 q 161 910 123 879 q 245 956 199 941 q 341 972 291 972 q 448 953 401 972 q 530 901 496 934 q 583 822 564 867 q 602 724 602 777 q 594 665 602 692 q 573 612 586 637 q 543 565 559 587 q 511 523 527 542 q 467 474 490 498 q 426 426 444 451 q 395 376 407 402 q 384 319 384 349 l 384 238 l 292 238 l 292 322 q 307 402 292 365 q 351 472 323 440 q 397 524 370 497 q 449 583 424 552 q 490 646 473 613 q 508 715 508 679 q 499 769 508 740 q 471 824 491 798 q 417 868 451 851 q 330 886 382 886 q 252 866 285 886 q 195 819 219 847 q 157 760 171 791 q 141 705 144 729 l 51 722 m 286 0 l 286 110 l 388 110 l 388 0 l 286 0 "},"c":{"x_min":40,"x_max":564.15625,"ha":588,"o":"m 564 79 q 469 15 522 39 q 350 -8 415 -8 q 235 10 291 -8 q 136 71 179 29 q 66 180 93 114 q 40 343 40 247 q 66 506 40 439 q 136 615 93 573 q 235 676 179 657 q 350 696 291 696 q 468 672 415 696 q 562 610 521 648 l 505 546 q 438 594 478 575 q 357 613 398 613 q 187 545 247 613 q 128 343 128 478 q 187 141 128 210 q 357 73 247 73 q 440 94 401 73 q 505 141 479 116 l 564 79 l 564 79 "},"Ή":{"x_min":-152.796875,"x_max":768,"ha":876,"o":"m 674 0 l 674 447 l 201 447 l 201 0 l 107 0 l 107 967 l 201 967 l 201 530 l 674 530 l 674 967 l 768 967 l 768 0 l 674 0 m -152 775 l -48 1007 l 41 976 l -97 753 l -152 775 "},"Μ":{"x_min":107,"x_max":941,"ha":1035,"o":"m 847 754 q 844 753 847 754 q 789 631 816 690 q 734 509 762 572 l 563 147 l 483 147 q 396 331 439 239 q 311 516 354 423 l 202 754 q 199 753 202 753 l 199 0 l 107 0 l 107 967 l 200 967 l 411 512 q 433 464 416 500 q 468 386 450 427 q 502 309 486 345 q 524 261 518 273 l 526 261 l 622 473 l 850 967 l 941 967 l 941 0 l 847 0 l 847 754 "},"н":{"x_min":81,"x_max":616,"ha":697,"o":"m 528 0 l 528 321 l 169 321 l 169 0 l 81 0 l 81 689 l 169 689 l 169 392 l 528 392 l 528 689 l 616 689 l 616 0 l 528 0 "},"(":{"x_min":80,"x_max":367.890625,"ha":383,"o":"m 324 -167 q 231 -44 276 -111 q 153 96 187 21 q 100 253 120 172 q 80 420 80 334 q 98 586 80 505 q 150 743 117 668 q 226 884 183 818 q 320 1007 270 951 l 367 977 q 290 852 324 919 q 230 713 255 784 q 192 570 205 642 q 179 427 179 498 q 192 275 179 351 q 231 127 206 199 q 290 -10 256 55 q 366 -133 324 -76 l 324 -167 l 324 -167 "},"α":{"x_min":71,"x_max":613,"ha":699,"o":"m 71 332 q 82 468 71 403 q 123 584 94 534 q 202 665 152 634 q 329 696 252 696 q 431 674 380 696 q 522 591 483 652 l 525 593 l 525 688 l 613 688 l 613 0 l 525 0 l 525 101 l 522 101 q 437 21 485 51 q 323 -8 388 -8 q 200 21 248 -8 q 123 99 151 51 q 82 208 94 147 q 71 332 71 269 m 163 343 q 169 251 163 297 q 195 165 175 204 q 251 102 215 126 q 344 78 286 78 q 434 102 398 78 q 489 165 469 126 q 517 251 509 204 q 525 344 525 298 q 518 433 525 386 q 493 519 512 479 q 439 586 475 560 q 344 613 404 613 q 248 587 283 613 q 193 521 212 561 q 168 434 174 482 q 163 343 163 386 "},"γ":{"x_min":2.484375,"x_max":598.84375,"ha":606,"o":"m 353 -278 l 265 -278 l 265 12 q 175 287 220 155 q 78 554 130 419 q 66 583 71 572 q 55 601 60 595 q 42 608 49 606 q 21 611 34 611 q 15 610 19 611 q 9 609 12 609 q 6 646 8 629 q 2 683 5 663 q 58 693 31 693 q 119 671 96 693 q 156 609 141 649 q 235 381 196 497 q 308 158 274 266 q 357 290 330 215 q 412 440 384 365 q 463 581 439 515 q 505 688 487 647 l 598 687 q 473 363 533 523 q 353 26 414 202 l 353 -278 "},"м":{"x_min":82,"x_max":755,"ha":824,"o":"m 667 0 l 667 501 q 641 452 657 483 q 605 383 625 421 q 564 305 586 346 q 521 225 542 264 q 484 153 501 186 q 455 101 467 121 l 383 101 q 355 155 372 123 q 318 224 337 187 q 277 301 299 261 q 235 379 256 340 q 196 453 214 419 q 170 503 178 486 l 170 0 l 82 0 l 82 688 l 167 688 q 224 578 189 644 q 296 440 259 511 q 367 305 333 369 q 420 202 401 240 q 463 284 442 243 q 505 366 484 325 l 673 688 l 755 688 l 755 0 l 667 0 "},":":{"x_min":84,"x_max":197,"ha":286,"o":"m 84 0 l 84 122 l 197 122 l 197 0 l 84 0 m 84 415 l 84 539 l 197 539 l 197 415 l 84 415 "},"з":{"x_min":23.078125,"x_max":550,"ha":608,"o":"m 448 504 q 407 584 448 554 q 295 614 366 614 q 188 598 241 614 q 103 554 135 583 l 49 615 q 157 674 92 654 q 291 695 223 695 q 404 679 357 695 q 479 639 450 664 q 521 581 508 614 q 534 513 534 547 q 528 473 534 494 q 510 430 522 451 q 477 390 497 408 q 427 360 456 372 q 486 329 463 349 q 524 288 510 310 q 544 243 539 266 q 550 202 550 221 q 532 120 550 159 q 481 52 515 81 q 397 6 448 23 q 280 -10 346 -10 q 134 9 202 -10 q 23 68 66 29 l 80 131 q 163 89 107 106 q 277 73 218 73 q 411 108 360 73 q 462 204 462 143 q 449 257 462 235 q 415 294 437 279 q 365 316 393 308 q 306 324 337 324 l 209 324 l 209 395 l 306 395 q 408 424 368 395 q 448 504 448 453 "},"Ґ":{"x_min":107,"x_max":706.390625,"ha":716,"o":"m 706 881 l 203 881 l 203 0 l 107 0 l 107 967 l 617 967 l 617 1124 l 705 1124 l 706 881 "},"і":{"x_min":100,"x_max":192,"ha":294,"o":"m 100 877 l 100 967 l 192 967 l 192 877 l 100 877 m 103 0 l 103 689 l 191 689 l 191 0 l 103 0 "},"V":{"x_min":11.109375,"x_max":729.21875,"ha":745,"o":"m 375 155 q 425 321 398 239 q 476 486 451 403 l 627 967 l 729 967 l 409 0 l 330 0 l 11 967 l 111 967 q 129 909 116 947 q 156 824 141 871 q 187 726 170 778 q 219 627 204 673 q 246 542 234 580 q 265 485 258 504 l 369 154 l 375 155 "},"У":{"x_min":30.5625,"x_max":708.390625,"ha":725,"o":"m 708 968 q 557 568 633 766 q 404 169 481 370 q 360 78 383 113 q 312 22 337 42 q 259 -5 287 2 q 197 -13 230 -13 l 129 -13 l 129 73 l 179 73 q 249 92 220 73 q 302 168 277 111 q 311 192 308 181 q 320 214 315 203 q 175 589 247 403 q 30 965 102 776 l 131 965 l 259 617 q 284 554 269 594 q 316 471 300 514 q 348 389 333 428 q 372 326 363 349 l 376 326 q 419 444 393 373 q 475 594 445 515 l 611 968 l 708 968 l 708 968 "},"@":{"x_min":57,"x_max":1053,"ha":1113,"o":"m 733 347 q 752 284 733 308 q 812 260 771 260 q 877 275 846 260 q 931 325 908 291 q 966 410 953 358 q 979 536 979 462 q 944 698 979 627 q 854 817 910 769 q 726 890 798 865 q 580 915 655 915 q 399 880 481 915 q 256 787 316 846 q 162 645 195 727 q 129 466 129 562 q 162 277 129 362 q 256 133 195 193 q 400 41 316 73 q 587 10 484 10 q 738 23 672 10 q 870 68 805 36 l 894 5 q 751 -37 824 -20 q 594 -54 677 -54 q 379 -17 477 -54 q 209 85 281 18 q 97 249 137 152 q 57 466 57 345 q 95 668 57 574 q 201 831 133 762 q 364 939 269 899 q 573 979 459 979 q 761 947 673 979 q 913 857 848 915 q 1015 718 977 799 q 1053 536 1053 636 q 1032 379 1053 444 q 979 274 1012 315 q 901 214 945 233 q 806 196 856 196 q 776 200 795 196 q 737 213 756 204 q 701 237 717 222 q 678 276 684 253 l 673 276 q 644 243 663 257 q 603 220 626 229 q 555 207 580 211 q 506 203 530 203 q 437 212 470 203 q 377 239 404 221 q 336 285 351 257 q 321 354 321 314 q 332 412 321 385 q 364 461 343 440 q 418 494 386 482 q 493 506 451 506 l 665 506 l 665 572 q 634 648 665 620 q 530 676 603 676 q 455 661 491 676 q 394 623 420 646 l 348 669 q 435 721 385 703 q 534 740 485 740 q 614 733 577 740 q 677 707 651 726 q 718 656 703 688 q 733 576 733 624 l 733 347 m 386 360 q 418 291 386 317 q 513 266 451 266 q 571 271 544 266 q 619 289 598 277 q 652 322 640 302 q 665 369 665 342 l 665 449 l 505 449 q 420 426 454 449 q 386 360 386 404 "},"i":{"x_min":100,"x_max":192,"ha":294,"o":"m 100 877 l 100 967 l 192 967 l 192 877 l 100 877 m 103 0 l 103 689 l 191 689 l 191 0 l 103 0 "},"Ί":{"x_min":-158.34375,"x_max":204,"ha":315,"o":"m 110 0 l 110 967 l 204 967 l 204 0 l 110 0 m -158 775 l -54 1007 l 37 976 l -101 753 l -158 775 "},"ќ":{"x_min":80,"x_max":615.265625,"ha":650,"o":"m 268 795 l 372 1026 l 463 995 l 325 773 l 268 795 m 80 0 l 80 689 l 168 689 l 168 383 l 319 383 q 358 386 338 383 q 395 401 377 389 q 427 432 412 412 q 452 484 441 452 l 515 689 l 602 688 l 540 488 q 502 404 524 438 q 440 359 480 370 q 511 311 488 348 q 548 223 533 274 l 615 0 l 524 0 l 466 202 q 413 290 445 269 q 331 311 380 311 l 168 311 l 168 0 l 80 0 "},"ё":{"x_min":58,"x_max":616,"ha":670,"o":"m 146 321 q 155 223 144 269 q 193 144 166 178 q 260 90 219 110 q 358 70 301 70 q 440 85 396 70 q 519 129 484 101 l 573 70 q 473 10 527 29 q 361 -8 419 -8 q 255 6 308 -8 q 157 59 201 21 q 85 165 113 97 q 58 341 58 233 q 83 512 58 444 q 149 621 109 580 q 239 679 189 662 q 338 696 289 696 q 451 673 400 696 q 538 611 502 651 q 595 514 575 571 q 616 389 616 457 l 616 321 l 146 321 m 525 393 q 472 560 522 505 q 340 615 422 615 q 203 558 255 615 q 146 393 151 501 l 525 393 m 419 846 l 419 946 l 519 946 l 519 846 l 419 846 m 163 846 l 163 946 l 263 946 l 263 846 l 163 846 "},"υ":{"x_min":96,"x_max":635,"ha":731,"o":"m 635 243 q 615 138 635 185 q 560 59 596 91 q 475 9 525 26 q 365 -8 425 -8 q 255 10 304 -8 q 170 61 205 28 q 115 140 134 94 q 96 241 96 186 l 96 689 l 184 689 l 184 272 q 233 129 184 183 q 366 75 283 75 q 497 126 448 75 q 547 265 547 177 l 547 689 l 635 689 l 635 243 "},"m":{"x_min":87,"x_max":1068,"ha":1160,"o":"m 980 427 q 939 561 980 510 q 808 612 898 612 q 735 598 769 612 q 675 559 701 584 q 635 497 650 534 q 621 417 621 461 l 621 0 l 533 0 l 533 427 q 489 561 533 510 q 356 612 445 612 q 226 559 277 612 q 175 417 175 506 l 175 0 l 87 0 l 87 689 l 175 689 l 175 589 l 177 589 q 267 669 210 644 q 381 695 323 695 q 511 663 459 695 q 595 576 563 632 l 595 578 q 597 576 597 578 q 698 667 638 639 q 833 695 758 695 q 926 679 883 695 q 1000 633 969 663 q 1049 559 1031 603 q 1068 460 1068 515 l 1068 0 l 980 0 l 980 427 "},"Е":{"x_min":107,"x_max":706.59375,"ha":745,"o":"m 107 0 l 107 967 l 706 967 l 706 881 l 201 881 l 201 530 l 631 530 l 631 447 l 201 447 l 201 86 l 706 86 l 706 0 l 107 0 "},"Э":{"x_min":20.609375,"x_max":673,"ha":756,"o":"m 223 543 l 579 543 l 579 618 q 566 718 579 669 q 526 803 554 766 q 453 862 498 840 q 345 885 409 885 q 205 845 265 885 q 117 741 145 805 l 31 780 q 151 921 69 868 q 347 974 234 974 q 499 945 437 974 q 600 868 560 917 q 656 756 639 819 q 673 622 673 693 l 673 346 q 651 210 673 275 q 588 97 630 146 q 481 20 545 48 q 331 -8 417 -8 q 137 45 219 -8 q 20 192 56 99 l 106 234 q 191 121 134 163 q 330 80 248 80 q 445 102 398 80 q 522 163 492 125 q 565 249 552 200 q 579 350 579 297 l 579 460 l 223 460 l 223 543 "},"ю":{"x_min":79,"x_max":798,"ha":862,"o":"m 79 688 l 165 688 l 165 383 l 264 383 q 278 492 265 445 q 314 574 291 540 q 402 664 347 633 q 532 696 457 696 q 659 669 603 696 q 749 589 715 643 q 786 486 775 547 q 798 339 798 425 q 745 101 798 182 q 651 18 709 44 q 528 -8 594 -8 q 326 83 393 -8 q 282 175 298 116 q 264 312 265 234 l 165 312 l 165 0 l 79 0 l 79 688 m 532 617 q 446 593 483 617 q 386 529 409 569 q 360 456 370 504 q 350 341 350 408 q 360 227 350 275 q 388 152 370 180 q 447 92 412 114 q 530 71 482 71 q 621 95 583 71 q 682 172 659 119 q 703 239 697 200 q 710 341 710 279 q 683 523 710 469 q 621 594 659 572 q 532 617 582 617 "},"K":{"x_min":107,"x_max":828.828125,"ha":850,"o":"m 720 0 q 682 63 706 22 q 628 154 659 104 q 566 259 598 204 q 503 364 534 314 q 448 455 473 414 q 412 518 424 496 q 367 464 396 500 q 305 389 338 429 q 244 314 273 350 q 201 261 214 279 l 201 0 l 107 0 l 107 967 l 201 967 l 201 397 l 203 397 l 412 653 l 671 967 l 778 967 q 742 922 766 951 q 687 856 717 893 q 624 779 657 819 q 561 702 591 739 q 507 636 531 665 q 471 591 484 607 q 514 520 485 566 q 577 416 542 473 q 650 295 612 358 q 723 175 688 232 q 785 71 757 118 q 828 0 813 25 l 720 0 "},"7":{"x_min":74,"x_max":601.703125,"ha":672,"o":"m 258 0 l 160 0 l 505 881 l 160 881 l 160 732 l 74 732 l 74 967 l 601 967 l 601 876 l 258 0 "},"п":{"x_min":96,"x_max":634,"ha":731,"o":"m 546 0 l 546 613 l 184 613 l 184 0 l 96 0 l 96 689 l 634 689 l 634 0 l 546 0 "},"Y":{"x_min":5.703125,"x_max":672.921875,"ha":683,"o":"m 384 0 l 296 0 l 296 398 l 5 967 l 104 967 l 252 666 l 340 483 q 388 582 364 532 q 435 682 411 632 q 506 823 471 753 q 577 967 542 894 l 672 967 q 527 682 599 823 q 384 398 456 541 l 384 0 "},"E":{"x_min":107,"x_max":706.59375,"ha":745,"o":"m 107 0 l 107 967 l 706 967 l 706 881 l 201 881 l 201 530 l 631 530 l 631 447 l 201 447 l 201 86 l 706 86 l 706 0 l 107 0 "},"Є":{"x_min":72,"x_max":722.984375,"ha":739,"o":"m 722 192 q 606 45 686 99 q 411 -8 525 -8 q 261 20 325 -8 q 156 97 197 48 q 93 210 114 146 q 72 346 72 275 l 72 622 q 93 756 72 693 q 156 868 114 819 q 263 945 199 917 q 411 974 327 974 q 603 921 524 974 q 720 780 682 868 l 632 740 q 550 844 606 804 q 413 885 493 885 q 304 862 350 885 q 227 803 259 840 q 181 717 196 766 q 166 617 166 669 l 166 530 l 521 530 l 521 447 l 166 447 l 166 350 q 181 248 166 297 q 227 163 196 200 q 304 102 259 125 q 413 80 350 80 q 551 121 495 80 q 635 234 607 163 l 722 192 "},"έ":{"x_min":75,"x_max":570.75,"ha":603,"o":"m 191 362 q 137 390 158 373 q 104 428 116 408 q 89 468 93 448 q 86 505 86 488 q 102 575 86 541 q 149 636 118 609 q 228 680 180 664 q 341 696 276 696 q 466 673 408 696 q 567 611 524 650 l 511 547 q 435 592 481 574 q 344 611 388 611 q 221 582 269 611 q 173 504 173 554 q 214 427 173 455 q 326 399 255 399 l 416 399 l 416 327 l 319 327 q 260 317 288 327 q 209 290 231 307 q 174 250 187 273 q 161 198 161 226 q 214 108 161 139 q 349 77 267 77 q 436 94 391 77 q 513 140 481 111 l 570 77 q 467 16 527 38 q 340 -6 406 -6 q 228 9 277 -6 q 145 52 179 24 q 93 118 111 80 q 75 202 75 156 q 80 240 75 217 q 99 285 86 262 q 135 328 112 308 q 191 359 158 348 l 191 362 m 272 795 l 376 1026 l 466 995 l 329 773 l 272 795 "},"|":{"x_min":99,"x_max":168,"ha":263,"o":"m 99 -225 l 99 995 l 168 995 l 168 -225 l 99 -225 "},"ϋ":{"x_min":96,"x_max":634,"ha":731,"o":"m 634 243 q 614 138 634 185 q 559 59 595 91 q 474 9 524 26 q 365 -8 424 -8 q 254 10 303 -8 q 170 61 205 28 q 115 140 134 94 q 96 241 96 186 l 96 689 l 184 689 l 184 272 q 233 129 184 183 q 366 75 283 75 q 497 126 448 75 q 547 265 547 177 l 547 689 l 634 689 l 634 243 m 440 836 l 440 936 l 540 936 l 540 836 l 440 836 m 184 836 l 184 936 l 284 936 l 284 836 l 184 836 "},"џ":{"x_min":83,"x_max":621,"ha":704,"o":"m 621 688 l 621 0 l 400 0 l 400 -190 l 303 -190 l 303 0 l 83 0 l 83 688 l 171 688 l 171 81 l 533 81 l 533 688 l 621 688 "},"љ":{"x_min":19.765625,"x_max":997,"ha":1019,"o":"m 553 410 l 763 410 q 865 393 822 410 q 938 348 909 376 q 982 284 967 321 q 997 208 997 248 q 932 54 997 108 q 757 0 868 0 l 463 0 l 463 611 l 252 611 l 252 373 q 238 204 252 272 q 199 92 225 136 q 133 22 172 48 q 44 -18 94 -2 l 19 55 q 86 93 58 72 q 132 149 114 113 q 158 241 150 184 q 167 390 167 298 l 167 689 l 553 689 l 553 410 m 907 207 q 870 290 907 252 q 758 329 833 329 l 552 329 l 552 81 l 757 81 q 865 112 823 81 q 907 207 907 143 "},"й":{"x_min":82,"x_max":644,"ha":725,"o":"m 244 930 q 281 863 250 892 q 356 835 311 835 q 433 862 404 835 q 467 930 461 889 l 544 930 q 529 874 539 903 q 496 820 518 845 q 440 779 474 795 q 356 763 406 763 q 269 779 304 763 q 211 820 233 795 q 178 874 189 845 q 167 930 168 903 l 244 930 m 82 0 l 82 689 l 170 689 l 170 138 l 292 306 l 568 689 l 644 689 l 644 0 l 554 0 l 554 536 l 448 391 l 166 0 l 82 0 "},"q":{"x_min":74,"x_max":613,"ha":699,"o":"m 74 334 q 87 475 74 409 q 130 590 100 541 q 212 667 161 639 q 339 696 262 696 q 444 672 394 696 q 524 590 494 648 l 525 590 l 525 689 l 613 689 l 613 -279 l 525 -279 l 525 97 l 524 97 q 442 20 490 48 q 328 -8 393 -8 q 204 20 253 -8 q 126 96 155 48 q 85 206 97 144 q 74 334 74 268 m 162 343 q 168 250 162 297 q 193 165 174 204 q 249 102 213 126 q 345 78 285 78 q 434 101 399 78 q 489 162 469 125 q 517 248 509 200 q 525 344 525 295 q 518 434 525 386 q 493 522 512 481 q 438 590 473 563 q 345 618 404 618 q 248 591 284 618 q 193 524 212 565 q 168 434 174 483 q 162 343 162 386 "},"b":{"x_min":74,"x_max":616,"ha":669,"o":"m 616 353 q 604 219 616 283 q 564 103 593 154 q 485 22 535 53 q 359 -8 435 -8 q 257 9 309 -8 q 165 85 205 26 l 162 85 l 162 0 l 74 0 l 74 1007 l 162 1007 l 162 590 l 165 590 q 364 696 235 696 q 487 666 439 696 q 563 587 535 636 q 604 478 592 539 q 616 353 616 416 m 524 344 q 517 437 524 390 q 491 522 511 483 q 435 585 471 561 q 342 610 400 610 q 252 586 288 610 q 197 525 217 562 q 169 439 177 487 q 162 343 162 391 q 168 254 162 301 q 194 166 174 207 q 250 98 214 125 q 346 71 286 71 q 439 94 404 71 q 492 156 474 118 q 517 243 511 194 q 524 344 524 293 "},"ύ":{"x_min":96,"x_max":635,"ha":731,"o":"m 635 243 q 615 138 635 185 q 560 59 596 91 q 475 9 525 26 q 365 -8 425 -8 q 255 10 304 -8 q 170 61 205 28 q 115 140 134 94 q 96 241 96 186 l 96 689 l 184 689 l 184 272 q 233 129 184 183 q 366 75 283 75 q 497 126 448 75 q 547 265 547 177 l 547 689 l 635 689 l 635 243 m 295 795 l 401 1026 l 491 995 l 352 773 l 295 795 "},"ή":{"x_min":81,"x_max":619,"ha":701,"o":"m 531 0 l 531 426 q 490 562 531 514 q 354 610 449 610 q 282 596 316 610 q 223 556 248 582 q 183 494 198 530 q 169 414 169 458 l 169 0 l 81 0 l 81 689 l 169 689 l 169 585 l 173 585 q 264 668 207 641 q 380 696 321 696 q 477 680 432 696 q 553 635 521 665 q 601 561 584 605 q 619 458 619 516 l 619 0 l 531 0 m 266 795 l 370 1026 l 462 995 l 323 773 l 266 795 "},"Ж":{"x_min":27.0625,"x_max":1200.3125,"ha":1225,"o":"m 566 968 l 660 968 l 660 536 l 819 536 q 870 540 844 536 q 920 561 896 545 q 965 606 944 577 q 1000 681 986 634 l 1091 964 l 1182 963 l 1096 684 q 1040 565 1075 613 q 955 502 1005 517 q 1053 433 1021 484 q 1107 312 1086 383 l 1200 0 l 1098 0 l 1011 301 q 977 379 996 349 q 935 425 958 409 q 886 448 912 442 q 830 455 860 455 l 660 455 l 660 0 l 566 0 l 566 455 l 395 455 q 339 448 365 455 q 290 425 313 442 q 247 379 267 409 q 214 301 228 349 l 127 0 l 27 0 l 120 312 q 173 433 140 383 q 270 502 206 484 q 186 565 221 517 q 131 684 150 613 l 43 964 l 135 964 l 225 681 q 261 606 239 634 q 306 561 282 577 q 355 540 329 545 q 406 536 381 536 l 566 536 l 566 968 "},"Н":{"x_min":107,"x_max":768,"ha":876,"o":"m 674 0 l 674 447 l 201 447 l 201 0 l 107 0 l 107 967 l 201 967 l 201 530 l 674 530 l 674 967 l 768 967 l 768 0 l 674 0 "},"Ε":{"x_min":107,"x_max":706.59375,"ha":745,"o":"m 107 0 l 107 967 l 706 967 l 706 881 l 201 881 l 201 530 l 631 530 l 631 447 l 201 447 l 201 86 l 706 86 l 706 0 l 107 0 "},"ф":{"x_min":62,"x_max":751,"ha":811,"o":"m 451 699 q 596 664 535 692 q 694 586 657 637 q 738 479 726 540 q 751 338 751 418 q 739 211 751 267 q 699 113 727 155 q 597 20 660 50 q 451 -13 534 -10 l 451 -276 l 363 -276 l 363 -13 q 235 12 292 -10 q 141 74 178 34 q 79 187 96 123 q 62 344 62 252 q 75 473 62 415 q 124 579 89 530 q 222 663 161 632 q 363 699 283 694 l 363 1007 l 451 1007 l 451 699 m 451 68 q 561 96 513 69 q 635 176 610 123 q 657 254 651 212 q 663 341 663 297 q 655 446 663 402 q 623 529 647 490 q 550 593 596 572 q 451 614 505 614 l 451 68 m 363 614 q 266 593 311 614 q 193 536 221 573 q 159 457 169 504 q 150 343 150 411 q 159 236 150 284 q 197 147 168 187 q 266 90 222 112 q 363 68 310 68 l 363 614 "},"л":{"x_min":7.140625,"x_max":612,"ha":711,"o":"m 612 0 l 524 0 l 524 612 l 239 612 l 239 374 q 225 204 239 272 q 186 91 212 136 q 121 20 159 45 q 32 -18 82 -4 q 18 18 25 1 q 7 54 12 36 q 73 90 46 70 q 118 144 100 109 q 144 237 136 179 q 153 390 153 296 l 153 688 l 612 688 l 612 0 "},"L":{"x_min":107,"x_max":706.59375,"ha":745,"o":"m 107 0 l 107 967 l 201 967 l 201 86 l 706 86 l 706 0 l 107 0 "},"Щ":{"x_min":97,"x_max":1265,"ha":1304,"o":"m 1172 0 l 97 0 l 97 967 l 193 967 l 193 86 l 586 86 l 586 967 l 682 967 l 682 86 l 1082 86 l 1082 967 l 1176 967 l 1176 83 l 1265 83 l 1265 -210 l 1172 -210 l 1172 0 "},"σ":{"x_min":60,"x_max":663.84375,"ha":698,"o":"m 518 606 q 558 575 540 595 q 589 524 576 555 q 609 447 602 493 q 616 337 616 401 q 595 180 616 245 q 538 73 575 115 q 449 11 502 30 q 335 -8 397 -8 q 126 80 192 -8 q 60 340 60 169 q 134 601 60 514 q 340 689 208 689 l 663 689 l 663 611 l 518 611 l 518 606 m 339 605 q 197 539 247 605 q 148 341 148 474 q 198 136 148 200 q 338 73 249 73 q 414 86 379 73 q 473 130 448 99 q 513 212 498 161 q 528 337 528 262 q 514 463 528 412 q 475 546 500 514 q 415 591 450 577 q 339 605 381 605 "},"θ":{"x_min":67,"x_max":630,"ha":695,"o":"m 356 1011 q 484 980 430 1011 q 570 895 538 949 q 591 850 581 877 q 610 779 602 823 q 624 672 618 736 q 630 520 630 609 q 624 359 630 427 q 609 241 618 290 q 587 159 599 191 q 560 105 574 126 q 474 23 528 54 q 344 -8 420 -8 q 223 16 273 -8 q 137 86 172 41 q 109 139 122 107 q 86 221 96 171 q 71 341 76 271 q 67 509 67 412 q 73 653 67 591 q 89 760 79 715 q 110 835 98 805 q 133 883 122 865 q 223 976 169 941 q 356 1011 277 1011 m 150 492 q 152 350 148 407 q 161 255 155 293 q 177 195 168 218 q 194 155 186 172 q 253 93 216 115 q 348 71 290 71 q 443 97 406 71 q 503 176 480 123 q 517 213 509 190 q 533 273 526 236 q 544 364 540 311 q 547 492 548 418 l 150 492 m 352 930 q 263 907 299 930 q 202 844 226 884 q 184 810 193 828 q 168 761 174 791 q 156 684 161 730 q 150 570 151 637 l 547 570 q 542 679 547 635 q 531 753 537 723 q 519 800 526 783 q 508 830 512 817 q 449 903 488 877 q 352 930 410 930 "},"Ο":{"x_min":67,"x_max":743,"ha":810,"o":"m 405 974 q 547 947 484 974 q 653 873 609 921 q 720 762 697 826 q 743 622 743 698 l 743 346 q 719 198 743 264 q 652 87 695 133 q 545 17 608 42 q 405 -8 483 -8 q 255 20 319 -8 q 150 97 191 48 q 87 210 108 146 q 67 346 67 275 l 67 622 q 87 756 67 693 q 150 868 108 819 q 256 945 193 917 q 405 974 319 974 m 407 885 q 299 862 345 885 q 222 804 253 840 q 176 719 191 768 q 161 619 161 671 l 161 348 q 176 247 161 296 q 222 161 191 198 q 299 100 253 123 q 407 78 345 78 q 507 98 462 78 q 582 155 551 119 q 630 242 613 191 q 647 351 647 293 l 647 619 q 630 723 647 675 q 583 807 613 772 q 507 864 552 843 q 407 885 462 885 "}," ":{"x_min":0,"x_max":0,"ha":310},"Ώ":{"x_min":-141.171875,"x_max":754,"ha":796,"o":"m 182 85 q 126 131 150 101 q 87 198 103 161 q 64 280 72 236 q 57 369 57 323 l 57 623 q 77 757 57 693 q 140 869 98 821 q 246 945 183 917 q 395 974 309 974 q 537 947 474 974 q 643 874 599 921 q 710 764 687 828 q 733 623 733 700 l 733 369 q 704 202 733 275 q 610 86 676 129 l 610 85 l 754 85 l 754 0 l 479 0 l 479 101 q 597 198 556 126 q 639 365 639 269 l 639 621 q 623 725 639 676 q 576 810 607 774 q 501 867 546 846 q 397 888 456 888 q 287 865 334 888 q 210 806 241 843 q 165 721 180 769 q 151 621 151 672 l 151 365 q 161 281 151 322 q 191 204 171 240 q 242 141 211 169 q 313 100 272 113 l 313 0 l 38 0 l 38 85 l 182 85 m -85 753 q -112 765 -99 760 q -141 775 -125 770 l -35 1006 q 7 991 -13 998 q 51 976 28 983 q -16 864 18 920 q -85 753 -50 809 "},"+":{"x_min":38.859375,"x_max":632.140625,"ha":672,"o":"m 371 364 l 371 96 l 300 96 l 300 364 l 38 364 l 38 435 l 300 435 l 300 700 l 371 700 l 371 435 l 632 435 l 632 364 l 371 364 "},"Ϊ":{"x_min":-17,"x_max":332,"ha":315,"o":"m 110 0 l 110 967 l 204 967 l 204 0 l 110 0 m 232 1063 l 232 1160 l 332 1160 l 332 1063 l 232 1063 m -17 1063 l -17 1160 l 83 1160 l 83 1063 l -17 1063 "},"'":{"x_min":114,"x_max":181,"ha":299,"o":"m 114 699 l 114 967 l 181 967 l 181 699 l 114 699 "},"Р":{"x_min":108,"x_max":768,"ha":783,"o":"m 768 679 q 749 580 768 630 q 693 490 730 530 q 601 426 656 451 q 474 401 546 401 l 202 401 l 202 0 l 108 0 l 108 967 l 458 967 q 572 951 516 967 q 672 900 629 935 q 741 811 715 866 q 768 679 768 757 m 668 683 q 652 770 668 733 q 607 831 636 807 q 540 868 578 855 q 459 881 502 881 l 202 881 l 202 489 l 464 489 q 556 506 517 489 q 619 550 594 523 q 656 612 644 577 q 668 683 668 647 "},"щ":{"x_min":83,"x_max":1078,"ha":1112,"o":"m 83 0 l 83 688 l 171 688 l 171 79 l 491 79 l 491 688 l 579 688 l 579 79 l 905 79 l 905 688 l 993 688 l 993 78 l 1078 78 l 1078 -185 l 990 -185 l 990 0 l 83 0 "},"Φ":{"x_min":60,"x_max":954,"ha":1013,"o":"m 954 493 q 926 322 954 397 q 846 194 898 247 q 720 112 794 141 q 553 78 645 82 l 553 0 l 459 0 l 459 78 q 284 116 359 83 q 159 202 209 148 q 84 331 109 257 q 60 493 60 405 q 80 646 60 572 q 148 780 101 721 q 271 876 195 839 q 459 921 348 914 l 459 967 l 553 967 l 553 921 q 737 883 661 916 q 861 793 813 850 q 931 659 909 736 q 954 493 954 583 m 553 157 q 783 246 700 159 q 866 493 866 332 q 787 749 866 657 q 553 844 708 841 l 553 157 m 459 845 q 318 813 377 840 q 221 740 259 786 q 166 631 184 694 q 148 493 148 568 q 166 359 148 419 q 222 257 185 300 q 318 188 260 213 q 459 157 377 162 l 459 845 "},"Т":{"x_min":5.65625,"x_max":663.578125,"ha":670,"o":"m 383 884 l 383 0 l 289 0 l 289 884 l 5 884 l 5 967 l 663 967 l 663 884 l 383 884 "},"W":{"x_min":22.21875,"x_max":1108.421875,"ha":1133,"o":"m 866 0 l 784 0 l 563 800 l 562 800 q 529 676 551 755 q 483 507 508 597 l 345 0 l 261 0 l 22 967 l 122 967 q 179 716 150 840 q 237 466 209 593 l 305 170 q 307 170 306 170 q 309 169 308 169 l 387 465 q 417 575 398 507 q 456 716 436 643 q 495 857 476 789 q 526 967 513 925 l 604 967 q 675 712 640 839 q 745 459 709 586 l 825 169 l 827 169 q 859 313 843 238 q 890 457 875 387 l 1007 967 l 1108 967 l 866 0 "},"λ":{"x_min":2.78125,"x_max":615.328125,"ha":614,"o":"m 612 72 q 614 35 613 54 q 615 -1 615 17 q 566 -6 591 -6 q 500 19 522 -6 q 463 92 479 45 l 384 330 l 311 554 l 308 554 q 281 479 298 523 q 245 383 265 434 q 205 277 226 331 q 164 170 184 222 q 127 74 144 119 q 98 0 109 30 l 2 0 l 266 677 q 239 766 252 722 q 211 854 226 809 q 184 907 200 890 q 127 925 168 925 q 114 925 122 925 q 100 923 106 925 q 96 963 97 943 q 94 1003 95 983 q 125 1007 111 1005 q 152 1010 138 1010 q 211 997 187 1010 q 252 964 236 985 q 280 916 269 943 q 301 862 291 890 l 544 130 q 555 101 550 112 q 568 83 561 89 q 586 74 576 76 q 612 72 597 72 "},"а":{"x_min":56,"x_max":599,"ha":671,"o":"m 510 68 q 426 9 483 27 q 298 -8 369 -8 q 123 44 190 -8 q 56 191 56 97 q 69 268 56 232 q 111 331 83 304 q 180 373 139 358 q 276 389 221 389 l 511 389 l 511 477 q 470 578 511 543 q 331 613 429 613 q 154 549 216 613 l 98 608 q 198 674 138 652 q 330 696 258 696 q 433 686 384 696 q 518 652 481 676 q 577 585 555 627 q 599 477 599 543 l 599 0 l 511 0 l 511 66 l 510 68 m 297 317 q 180 286 222 317 q 139 196 139 255 q 183 103 139 136 q 309 70 227 70 q 378 75 343 70 q 443 97 413 81 q 492 139 473 113 q 511 207 511 165 l 511 317 l 297 317 "},"ә":{"x_min":58,"x_max":617,"ha":671,"o":"m 529 368 q 519 464 530 419 q 481 544 508 509 q 414 598 455 578 q 316 619 373 619 q 235 603 279 619 q 156 559 190 587 l 101 619 q 201 678 147 659 q 314 697 255 697 q 420 682 367 697 q 517 629 473 667 q 589 523 561 591 q 617 347 617 455 q 591 176 617 244 q 525 67 565 108 q 434 9 484 26 q 336 -7 384 -7 q 222 15 273 -7 q 135 77 172 37 q 78 174 98 118 q 58 299 58 230 l 58 368 l 529 368 m 150 296 q 202 128 152 183 q 334 74 252 74 q 471 130 419 74 q 529 296 523 187 l 150 296 "},"v":{"x_min":13.890625,"x_max":601.4375,"ha":615,"o":"m 312 122 q 352 241 331 178 q 391 360 373 304 q 447 524 419 440 q 504 688 476 607 l 601 688 l 348 0 l 268 0 q 140 344 204 170 q 13 688 76 517 l 109 688 q 167 524 138 608 q 223 360 195 440 q 240 311 229 344 q 265 241 252 278 q 290 171 279 204 q 308 122 302 137 l 312 122 "},">":{"x_min":52.78125,"x_max":613.9375,"ha":672,"o":"m 52 178 q 103 201 66 183 q 188 240 140 218 q 289 288 236 262 q 391 337 343 314 q 475 376 438 359 q 525 400 511 393 l 54 622 l 54 700 l 613 433 l 613 366 l 52 99 l 52 178 "},"τ":{"x_min":21.484375,"x_max":455.34375,"ha":482,"o":"m 272 611 l 272 178 q 290 107 272 133 q 356 81 308 81 l 422 81 l 422 0 l 337 0 q 226 39 269 0 q 184 154 184 79 l 184 611 l 21 611 l 21 689 l 455 689 l 455 611 l 272 611 "},"Ї":{"x_min":-20,"x_max":336,"ha":315,"o":"m 110 0 l 110 967 l 204 967 l 204 0 l 110 0 m 236 1085 l 236 1185 l 336 1185 l 336 1085 l 236 1085 m -20 1085 l -20 1185 l 79 1185 l 79 1085 l -20 1085 "},"Λ":{"x_min":13.890625,"x_max":807.015625,"ha":822,"o":"m 707 0 l 411 837 l 406 837 q 325 605 359 701 q 268 440 291 508 q 228 327 244 372 q 201 251 212 283 l 112 0 l 13 0 q 189 483 101 243 q 366 967 277 723 l 452 967 l 807 0 l 707 0 "},"·":{"x_min":84,"x_max":197,"ha":286,"o":"m 84 415 l 84 539 l 197 539 l 197 415 l 84 415 "},"Х":{"x_min":6.9375,"x_max":702.828125,"ha":711,"o":"m 598 0 l 355 420 l 111 0 l 6 0 l 302 496 l 26 967 l 131 967 l 355 571 l 579 967 l 683 967 l 406 496 l 702 0 l 598 0 "},"Υ":{"x_min":5.703125,"x_max":672.921875,"ha":683,"o":"m 384 0 l 296 0 l 296 398 l 5 967 l 104 967 l 252 666 l 340 483 q 388 582 366 532 q 435 682 411 632 q 506 823 471 753 q 577 967 542 894 l 672 967 q 527 682 599 823 q 384 398 456 541 l 384 0 "},"r":{"x_min":96,"x_max":495.140625,"ha":490,"o":"m 459 587 q 412 605 436 599 q 364 611 388 611 q 234 561 285 611 q 184 419 184 511 l 184 0 l 96 0 l 96 689 l 184 689 l 184 586 l 189 586 q 278 674 225 651 q 389 696 331 697 q 448 689 421 694 q 495 672 475 683 l 459 587 "},"ж":{"x_min":27.515625,"x_max":954.484375,"ha":983,"o":"m 447 382 l 447 688 l 535 688 l 535 382 l 658 382 q 697 385 678 382 q 735 400 716 388 q 767 431 753 411 q 791 483 782 451 q 805 527 796 498 q 823 585 814 555 q 841 644 832 615 q 855 688 850 672 l 940 688 l 879 489 q 841 404 864 439 q 779 358 818 369 q 849 311 828 347 q 886 223 871 275 l 954 0 l 865 0 l 807 202 q 754 290 787 269 q 672 311 721 311 l 535 311 l 535 0 l 447 0 l 447 311 l 309 311 q 228 290 260 311 q 174 202 195 269 q 162 159 170 187 q 144 101 153 131 q 128 43 135 70 q 116 0 120 15 l 27 0 l 94 223 q 131 311 109 275 q 201 358 152 347 q 140 404 162 369 q 102 489 117 439 q 71 588 87 539 q 40 688 55 637 l 126 688 l 188 483 q 212 431 198 451 q 245 400 227 411 q 283 385 263 388 q 321 382 302 382 l 447 382 "},"x":{"x_min":30.5625,"x_max":597.265625,"ha":628,"o":"m 491 0 l 313 288 l 136 0 l 30 0 l 262 352 l 41 689 l 147 689 l 313 412 l 480 689 l 586 689 l 365 351 l 597 0 l 491 0 "},"μ":{"x_min":96,"x_max":634,"ha":720,"o":"m 546 0 l 546 94 l 542 94 q 452 15 507 39 q 340 -8 397 -8 q 256 7 296 -8 q 188 51 217 23 l 184 51 l 184 -278 l 96 -278 l 96 689 l 184 689 l 184 262 q 197 184 184 218 q 236 126 211 150 q 294 90 261 103 q 365 78 328 78 q 437 91 404 78 q 493 130 469 105 q 532 191 518 155 q 546 272 546 227 l 546 689 l 634 689 l 634 0 l 546 0 "},"с":{"x_min":40,"x_max":564.15625,"ha":588,"o":"m 564 79 q 469 15 522 39 q 350 -8 415 -8 q 235 10 291 -8 q 136 71 179 29 q 66 180 93 114 q 40 343 40 247 q 66 506 40 439 q 136 615 93 573 q 235 676 179 657 q 350 696 291 696 q 468 672 415 696 q 562 610 521 648 l 505 546 q 438 594 478 575 q 357 613 398 613 q 187 545 247 613 q 128 343 128 478 q 187 141 128 210 q 357 73 247 73 q 440 94 401 73 q 505 141 479 116 l 564 79 l 564 79 "},"h":{"x_min":83,"x_max":620,"ha":703,"o":"m 532 0 l 532 426 q 491 562 532 514 q 359 610 451 610 q 286 596 320 610 q 227 556 252 582 q 186 494 201 530 q 171 414 171 458 l 171 0 l 83 0 l 83 1007 l 171 1007 l 171 586 l 175 586 q 266 668 209 641 q 381 696 323 696 q 478 680 434 696 q 554 635 522 665 q 602 561 585 605 q 620 458 620 516 l 620 0 l 532 0 "},".":{"x_min":87,"x_max":200,"ha":285,"o":"m 87 0 l 87 122 l 200 122 l 200 0 l 87 0 "},"f":{"x_min":36.65625,"x_max":362,"ha":374,"o":"m 210 614 l 210 0 l 120 0 l 120 614 l 36 614 l 36 689 l 120 689 l 119 837 q 132 913 119 880 q 168 967 145 945 q 222 1000 191 990 q 288 1011 253 1011 l 362 1011 l 362 928 l 300 928 q 254 919 272 928 q 226 894 236 910 q 213 860 216 879 q 210 823 210 842 l 210 689 l 362 689 l 362 614 l 210 614 "},"A":{"x_min":13.890625,"x_max":807.015625,"ha":822,"o":"m 707 0 q 666 113 686 56 q 626 229 645 170 l 193 229 q 152 113 172 170 q 112 0 131 56 l 13 0 q 189 483 101 243 q 366 967 277 723 l 452 967 l 807 0 l 707 0 m 406 846 q 372 741 395 810 q 322 598 348 673 q 264 437 291 515 q 219 310 237 358 l 598 310 l 490 622 l 411 846 l 406 846 "},"O":{"x_min":67,"x_max":743,"ha":810,"o":"m 405 974 q 556 947 493 974 q 661 873 619 921 q 722 762 702 826 q 743 622 743 698 l 743 346 q 719 198 743 264 q 652 87 695 133 q 545 17 608 42 q 405 -8 483 -8 q 255 20 319 -8 q 150 97 191 48 q 87 210 108 146 q 67 346 67 275 l 67 622 q 87 756 67 693 q 150 868 108 819 q 256 945 193 917 q 405 974 319 974 m 407 885 q 296 862 342 885 q 219 804 249 840 q 175 719 190 768 q 161 619 161 671 l 161 348 q 174 247 161 296 q 218 161 188 198 q 295 100 248 123 q 407 78 342 78 q 511 98 467 78 q 586 155 555 119 q 631 242 616 191 q 647 351 647 293 l 647 619 q 632 723 647 675 q 587 807 617 772 q 512 864 557 843 q 407 885 467 885 "},"π":{"x_min":96,"x_max":634,"ha":731,"o":"m 546 0 l 546 613 l 184 613 l 184 0 l 96 0 l 96 689 l 634 689 l 634 0 l 546 0 "},"3":{"x_min":66.46875,"x_max":607.890625,"ha":672,"o":"m 607 282 q 586 164 607 216 q 526 72 564 111 q 435 12 488 33 q 319 -8 381 -8 q 238 1 278 -8 q 163 33 198 11 q 103 91 128 54 q 66 182 77 128 l 152 195 q 213 104 167 135 q 322 73 258 73 q 399 88 363 73 q 461 130 435 103 q 502 195 487 157 q 517 278 517 232 q 466 417 517 368 q 338 467 415 467 l 272 467 l 272 546 l 326 546 q 454 592 404 546 q 504 714 504 638 q 454 842 504 792 q 327 892 405 892 q 226 859 274 892 q 160 764 178 826 l 74 776 q 108 856 84 819 q 166 919 133 893 q 241 960 199 945 q 328 975 283 975 q 447 953 397 975 q 530 896 498 931 q 578 814 562 861 q 594 718 594 768 q 587 663 594 691 q 566 606 581 634 q 525 553 551 577 q 462 508 499 528 q 532 462 504 489 q 577 404 560 434 q 600 341 594 373 q 607 282 607 310 "},"9":{"x_min":72,"x_max":608,"ha":672,"o":"m 72 677 q 94 814 72 758 q 156 906 117 871 q 245 958 195 942 q 348 974 295 974 q 443 956 396 974 q 526 903 489 939 q 585 815 563 868 q 608 692 608 762 q 573 533 608 603 l 299 -1 l 202 -1 l 433 445 l 428 447 q 373 424 403 430 q 319 418 342 418 q 221 436 266 418 q 142 488 176 454 q 90 570 109 522 q 72 677 72 618 m 158 689 q 172 604 158 641 q 211 542 187 567 q 269 503 235 516 q 340 490 302 490 q 409 503 377 490 q 465 542 441 516 q 504 604 490 567 q 518 689 518 641 q 470 838 518 782 q 340 895 422 895 q 269 881 302 895 q 211 840 235 867 q 172 774 187 812 q 158 689 158 736 "},"l":{"x_min":96,"x_max":295.125,"ha":321,"o":"m 260 0 q 140 33 185 0 q 96 151 96 66 l 96 1006 l 184 1006 l 184 161 q 272 79 184 79 l 295 79 l 295 0 l 260 0 "},"4":{"x_min":39.578125,"x_max":637.328125,"ha":672,"o":"m 554 152 l 554 0 l 466 0 l 466 152 l 39 152 l 39 236 l 377 967 l 475 967 l 132 235 l 466 235 l 466 526 l 554 526 l 554 235 l 637 235 l 637 152 l 554 152 "},"Ъ":{"x_min":9.25,"x_max":955,"ha":983,"o":"m 955 273 q 929 149 955 201 q 861 63 903 97 q 762 15 818 30 q 644 0 705 0 l 294 0 l 294 879 l 9 879 l 9 967 l 388 967 l 388 538 l 652 538 q 780 517 723 538 q 875 460 836 496 q 934 376 914 425 q 955 273 955 328 m 856 270 q 842 337 856 305 q 803 394 829 369 q 737 434 776 419 q 648 450 698 450 l 388 450 l 388 86 l 648 86 q 730 96 693 86 q 796 129 768 106 q 839 187 823 152 q 856 270 856 222 "},"ψ":{"x_min":90,"x_max":771,"ha":858,"o":"m 771 260 q 748 151 771 199 q 685 69 725 103 q 590 15 644 34 q 473 -7 536 -4 l 473 -276 l 385 -276 l 385 -7 q 266 16 319 -4 q 172 71 212 37 q 111 152 133 106 q 90 252 90 198 l 90 687 l 176 687 l 176 278 q 231 136 176 191 q 385 76 286 81 l 385 715 l 473 715 l 473 76 q 623 132 564 78 q 683 281 683 185 l 683 687 l 771 687 l 771 260 l 771 260 "},"η":{"x_min":81,"x_max":619,"ha":701,"o":"m 531 0 l 531 426 q 490 562 531 514 q 354 610 449 610 q 282 596 316 610 q 223 556 248 582 q 183 494 198 530 q 169 414 169 458 l 169 0 l 81 0 l 81 689 l 169 689 l 169 586 l 173 586 q 264 668 207 641 q 380 696 321 696 q 477 680 432 696 q 553 635 521 665 q 601 561 584 605 q 619 458 619 516 l 619 0 l 531 0 "}}}
